<?xml version="1.0" encoding="UTF-8"?>
<!-- Generator: visioncortex VTracer 0.6.3 -->
<svg version="1.1" xmlns="http://www.w3.org/2000/svg" width="1280" height="1280">
<path d="M0 0 C0.33 0.66 0.66 1.32 1 2 C2.49 1.01 2.49 1.01 4 0 C8.57 -0.45 13.16 -0.32 17.75 -0.31 C19.64 -0.34 19.64 -0.34 21.58 -0.36 C28.16 -0.36 33.22 -0.26 39 3 C40.7 3.9 40.7 3.9 42.44 4.81 C49 8.7 55.99 13.34 60 20 C60 21.32 60 22.64 60 24 C60.62 24.19 61.24 24.37 61.88 24.56 C65.06 26.71 65.19 29.38 66 33 C66.33 33 66.66 33 67 33 C68.61 38.13 69.5 43.04 70.06 48.38 C70.18 53.07 70.18 53.07 72 57 C72.28 59.48 72.45 61.96 72.62 64.46 C73.24 68.63 75.12 71.39 77.81 74.56 C78.53 75.43 78.53 75.43 79.27 76.32 C83.6 80.53 88.41 81.78 94.19 83 C95.72 83.34 97.25 83.69 98.78 84.03 C99.51 84.2 100.24 84.36 101 84.53 C105.06 85.48 109.02 86.74 113 88 C114.02 88.31 115.05 88.62 116.11 88.93 C125.92 91.89 135.47 95.36 145 99.12 C145.65 99.38 146.3 99.63 146.96 99.89 C149.89 101.06 152.37 102.24 155 104 C155.93 104.31 156.86 104.62 157.81 104.94 C161.09 106.03 163.93 107.44 167 109 C168.21 109.59 169.42 110.18 170.63 110.76 C180.28 115.47 189.83 120.4 198.46 126.84 C205.75 132 213.41 132.16 222 131 C225.73 129.41 228.23 127.89 231 125 C231.76 124.55 232.53 124.09 233.31 123.62 C236.15 122 236.15 122 239 119.5 C242.43 116.64 245.59 114.54 249.75 112.94 C252.16 112.22 252.16 112.22 253 110 C259.44 106.74 265.94 106.64 273 107 C273 106.34 273 105.68 273 105 C274.65 105 276.3 105 278 105 C278 105.33 278 105.66 278 106 C279.01 106.11 280.03 106.22 281.07 106.33 C282.42 106.49 283.77 106.65 285.12 106.81 C286.12 106.92 286.12 106.92 287.14 107.03 C291.66 107.58 295.05 108.77 299 111 C299.64 111.33 300.28 111.65 300.94 111.99 C304.95 114.18 307.79 116.71 311 120 C313.17 121.3 313.17 121.3 315 122 C315 123.32 315 124.64 315 126 C315.9 126.37 315.9 126.37 316.81 126.75 C319.34 128.19 320.5 129.53 322 132 C322 132.99 322 133.98 322 135 C322.66 135 323.32 135 324 135 C325.35 137.71 325.07 140.01 325 143 C325.66 143 326.32 143 327 143 C327.07 147.14 327.13 151.29 327.16 155.43 C327.18 156.84 327.2 158.25 327.23 159.65 C327.26 161.69 327.28 163.72 327.29 165.75 C327.31 166.97 327.32 168.19 327.34 169.45 C326.75 175.62 323.8 180.57 320.81 185.94 C320.02 187.37 320.02 187.37 319.21 188.84 C318.81 189.55 318.41 190.27 318 191 C317.01 191 316.02 191 315 191 C314.96 191.87 314.92 192.73 314.88 193.62 C313.89 197.41 312.4 198.71 309.56 201.29 C306.76 204.36 305.49 208.17 304 212 C303.67 212.66 303.34 213.32 303 214 C301.4 226.42 306.71 234.9 313.55 244.78 C316.08 248.66 318.02 252.83 320 257 C322.03 261.35 322.03 261.35 325 265 C326.35 267.92 327 269.75 327 273 C327.66 273 328.32 273 329 273 C329.36 274.29 329.71 275.58 330.06 276.88 C330.26 277.59 330.46 278.31 330.66 279.05 C331 281 331 281 330 283 C330.99 283.33 331.98 283.66 333 284 C335.16 287.24 335.38 289.23 336 293 C337.11 295.6 338.42 297.63 340 300 C340.85 303.04 341.52 306.11 342.22 309.19 C342.89 312.17 342.89 312.17 345 315 C345.56 317.3 346.05 319.61 346.5 321.94 C347.33 326.62 347.33 326.62 349.01 331.02 C350.41 333.83 350.76 336.67 351.31 339.75 C353.05 348.14 355.71 354.14 363 359 C366.15 360.79 369.07 361.55 372.62 362.19 C373.59 362.37 374.55 362.55 375.54 362.73 C378 363.23 378 363.23 380 362 C380 362.66 380 363.32 380 364 C380.87 364.05 381.74 364.1 382.63 364.15 C383.79 364.22 384.94 364.3 386.12 364.38 C387.26 364.44 388.4 364.51 389.57 364.59 C392.99 365 395.79 365.8 399 367 C399.86 367.31 400.71 367.61 401.6 367.93 C406.39 369.77 410.13 371.56 414 375 C414.97 375.62 415.94 376.24 416.94 376.88 C420.47 379.33 423.13 381.79 426 385 C426 385.99 426 386.98 426 388 C427.31 389.36 428.65 390.69 430 392 C432.11 395.4 432.92 399.17 434 403 C434.33 403.33 434.66 403.66 435 404 C435.25 408.29 435.19 412.58 435.19 416.88 C435.2 418.09 435.21 419.3 435.22 420.54 C435.23 422.28 435.23 422.28 435.23 424.05 C435.23 425.12 435.24 426.19 435.24 427.29 C435 430 435 430 433 433 C432.21 435.52 431.55 438.07 430.88 440.62 C429.95 443.14 429.11 444.36 427 446 C426.34 446 425.68 446 425 446 C424.88 446.78 424.75 447.57 424.62 448.38 C424 451 424 451 422 453 C420.68 453.7 419.35 454.37 418 455 C418 455.66 418 456.32 418 457 C416.68 457 415.36 457 414 457 C413.94 457.62 413.88 458.24 413.81 458.88 C413 461 413 461 410.94 462 C409.97 462.33 409 462.66 408 463 C406.74 463.66 405.5 464.32 404.25 465 C395.72 469.26 387.41 469.26 378 469 C378 469.66 378 470.32 378 471 C376.79 471.27 376.79 471.27 375.55 471.55 C374.48 471.8 373.41 472.05 372.31 472.31 C371.26 472.56 370.2 472.8 369.11 473.05 C364 474.61 360.55 477.17 356.81 480.94 C356.14 481.61 355.46 482.28 354.77 482.96 C351.28 486.98 350.77 489.97 350.56 495.25 C350.27 499.94 349.68 503.63 347.82 507.91 C346.78 510.56 346.16 513.23 345.5 516 C344.51 520.09 343.38 523.94 341.83 527.84 C340.04 532.5 338.55 537.26 337 542 C336.67 542 336.34 542 336 542 C335.52 543.39 335.04 544.79 334.56 546.19 C334.3 546.96 334.03 547.74 333.75 548.54 C333 551.01 332.49 553.46 332 556 C332.74 556 333.49 556 334.25 556.01 C352.38 556.07 370.51 556.14 388.64 556.24 C397.41 556.28 406.18 556.32 414.94 556.35 C422.59 556.37 430.23 556.4 437.87 556.45 C441.92 556.47 445.96 556.49 450.01 556.5 C453.82 556.5 457.63 556.52 461.45 556.55 C462.84 556.56 464.24 556.57 465.63 556.57 C474.63 556.56 482.36 556.91 490 562 C490 562.66 490 563.32 490 564 C490.99 564.33 491.98 564.66 493 565 C494.45 567.9 495 569.74 495 573 C495.66 573 496.32 573 497 573 C497.33 695.1 497.66 817.2 498 943 C546.18 943.33 594.36 943.66 644 944 C648.95 948.46 648.95 948.46 654 953 C655.32 953.66 656.64 954.32 658 955 C658 1058.62 658 1162.24 658 1269 C657.01 1269.33 656.02 1269.66 655 1270 C654.63 1271.32 654.29 1272.66 654 1274 C653.34 1274.33 652.68 1274.66 652 1275 C651.67 1275.66 651.34 1276.32 651 1277 C650.01 1277 649.02 1277 648 1277 C647.67 1277.99 647.34 1278.98 647 1280 C534.8 1280 422.6 1280 307 1280 C307 1279.01 307 1278.02 307 1277 C306.2 1276.77 305.39 1276.55 304.56 1276.31 C303.72 1275.88 302.87 1275.45 302 1275 C301.19 1272.38 301.19 1272.38 301 1270 C300.01 1269.67 299.02 1269.34 298 1269 C294.79 1261.17 294.57 1252.8 294.63 1244.46 C294.63 1243.26 294.63 1242.05 294.62 1240.81 C294.62 1237.51 294.62 1234.2 294.64 1230.89 C294.65 1227.32 294.64 1223.74 294.64 1220.16 C294.63 1213.16 294.64 1206.17 294.66 1199.18 C294.68 1191.03 294.68 1182.88 294.68 1174.73 C294.68 1160.2 294.69 1145.67 294.72 1131.13 C294.74 1117.03 294.76 1102.93 294.76 1088.83 C294.76 1087.96 294.76 1087.09 294.76 1086.19 C294.76 1084.44 294.76 1082.69 294.76 1080.93 C294.76 1079.64 294.76 1079.64 294.76 1078.31 C294.76 1077.45 294.76 1076.59 294.76 1075.7 C294.77 1062.25 294.78 1048.81 294.79 1035.36 C294.79 1030.49 294.8 1025.61 294.8 1020.74 C294.81 1013.02 294.81 1005.3 294.83 997.57 C294.83 994.04 294.84 990.51 294.84 986.99 C294.84 983.17 294.85 979.34 294.86 975.52 C294.86 973.84 294.86 973.84 294.86 972.13 C294.86 971.11 294.86 970.09 294.87 969.03 C294.87 967.71 294.87 967.71 294.87 966.36 C295.27 958.95 298.6 952.97 304 948 C308.64 943.98 313.14 943.87 319.11 943.88 C320.33 943.88 321.56 943.88 322.82 943.88 C324.18 943.88 325.53 943.88 326.88 943.89 C328.31 943.89 329.74 943.89 331.17 943.89 C335.04 943.89 338.91 943.89 342.79 943.9 C346.84 943.9 350.89 943.91 354.94 943.91 C362.61 943.91 370.27 943.92 377.94 943.93 C386.67 943.94 395.4 943.94 404.13 943.95 C422.09 943.96 440.04 943.98 458 944 C457.9 900.07 457.79 856.13 457.67 812.2 C457.66 807.02 457.64 801.84 457.63 796.66 C457.62 795.11 457.62 795.11 457.62 793.53 C457.58 776.8 457.53 760.08 457.5 743.35 C457.45 726.21 457.41 709.06 457.36 691.91 C457.33 681.32 457.31 670.73 457.28 660.14 C457.27 652.89 457.25 645.64 457.23 638.38 C457.21 634.19 457.2 630 457.2 625.81 C457.19 621.98 457.18 618.15 457.16 614.32 C457.16 612.93 457.16 611.54 457.16 610.15 C457.16 608.27 457.15 606.39 457.14 604.51 C457.13 602.94 457.13 602.94 457.13 601.34 C457.26 599.04 457.26 599.04 456 598 C454.09 597.89 452.17 597.85 450.26 597.84 C449.01 597.83 447.77 597.82 446.48 597.81 C445.09 597.81 443.69 597.8 442.3 597.79 C440.84 597.79 439.38 597.78 437.93 597.76 C433.95 597.74 429.98 597.72 426.01 597.7 C421.87 597.67 417.72 597.65 413.58 597.62 C405.72 597.57 397.87 597.53 390.01 597.48 C381.07 597.43 372.13 597.38 363.19 597.32 C344.79 597.21 326.4 597.1 308 597 C307.67 597.66 307.34 598.32 307 599 C306.34 599 305.68 599 305 599 C305.33 599.99 305.66 600.98 306 602 C305.29 603.45 305.29 603.45 304.56 604.94 C301.97 610.57 302.07 617.23 303.54 623.19 C305 626.9 307.13 629.31 310 632 C310.68 633.33 311.35 634.66 312 636 C312.77 636.74 312.77 636.74 313.56 637.5 C315 639 315 639 315.44 640.94 C316.21 643.76 317.93 644.99 320 647 C320.33 647.99 320.66 648.98 321 650 C321.66 650.33 322.32 650.66 323 651 C323.62 653.06 323.62 653.06 324 655 C324.33 655 324.66 655 325 655 C327.55 661.82 327.26 668.54 327.19 675.75 C327.19 676.98 327.19 678.21 327.19 679.48 C327.14 688.58 327.14 688.58 326 692 C325.64 693.39 325.28 694.79 324.94 696.19 C324.63 697.45 324.32 698.7 324 700 C322.68 700.33 321.36 700.66 320 701 C320.13 701.69 320.26 702.37 320.39 703.08 C319.79 707.57 317 709.65 313.81 712.69 C313.23 713.27 312.66 713.85 312.06 714.45 C308.86 717.57 306.29 719.53 302 721 C301.67 721.66 301.34 722.32 301 723 C299.68 722.67 298.36 722.34 297 722 C297 722.66 297 723.32 297 724 C290.39 727.66 284.18 727.41 276.75 727.31 C275.57 727.32 274.38 727.32 273.16 727.32 C264.4 727.27 264.4 727.27 261 725 C260.15 724.84 259.31 724.67 258.44 724.5 C256 724 256 724 254 722 C253.01 721.67 252.02 721.34 251 721 C251 720.34 251 719.68 251 719 C249.86 718.81 249.86 718.81 248.69 718.62 C246 718 246 718 243 716 C243 715.34 243 714.68 243 714 C241.92 713.91 241.92 713.91 240.81 713.81 C237.13 712.75 235.62 710.75 233 708 C223.96 701.9 214.6 701.83 204 702 C203.88 702.64 203.76 703.27 203.64 703.93 C203.43 704.61 203.22 705.3 203 706 C200.81 707.13 200.81 707.13 198 708 C192.5 709.69 192.5 709.69 189 714 C187.68 714 186.36 714 185 714 C184.67 714.99 184.34 715.98 184 717 C182.68 717 181.36 717 180 717 C180 717.66 180 718.32 180 719 C178.35 719 176.7 719 175 719 C174.67 719.99 174.34 720.98 174 722 C172.68 722 171.36 722 170 722 C170 722.66 170 723.32 170 724 C168.35 724 166.7 724 165 724 C164.67 724.99 164.34 725.98 164 727 C160.68 728.71 158.82 729 155 729 C155 729.66 155 730.32 155 731 C153.74 731.52 153.74 731.52 152.45 732.06 C151.35 732.51 150.25 732.97 149.12 733.44 C148.03 733.89 146.94 734.34 145.82 734.81 C144.19 735.5 142.58 736.21 141 737 C139 737.04 137 737.04 135 737 C135 737.66 135 738.32 135 739 C133.35 739 131.7 739 130 739 C130 739.66 130 740.32 130 741 C124.64 742.93 119.66 744.21 114 745 C113.01 745.66 112.02 746.32 111 747 C104.51 748.25 104.51 748.25 102 747 C102 747.66 102 748.32 102 749 C99.03 749 96.06 749 93 749 C93 749.66 93 750.32 93 751 C90.04 752.48 87.26 752.06 84 752 C83.75 752.6 83.5 753.2 83.25 753.81 C81.83 756.3 80.31 757.36 78 759 C77.67 759.66 77.34 760.32 77 761 C76.34 761 75.68 761 75 761 C74.88 761.78 74.75 762.57 74.62 763.38 C73.84 767.94 72.92 772.47 72 777 C71.34 777 70.68 777 70 777 C70.33 777.99 70.66 778.98 71 780 C70.46 787.69 69.6 795.11 66 802 C65.33 803.66 64.66 805.33 64 807 C63.34 807 62.68 807 62 807 C61.67 808.65 61.34 810.3 61 812 C60.34 812 59.68 812 59 812 C58.73 812.93 58.46 813.86 58.19 814.81 C56.49 819.37 56.49 819.37 54 821 C51.81 820.69 51.81 820.69 50 820 C50.33 821.32 50.66 822.64 51 824 C50.01 824 49.02 824 48 824 C47.67 824.99 47.34 825.98 47 827 C43.72 828.58 40.45 829.85 37 831 C37.33 831.66 37.66 832.32 38 833 C38.09 834.47 38.12 835.94 38.12 837.42 C38.12 838.34 38.12 839.27 38.12 840.22 C38.12 841.25 38.12 842.27 38.11 843.32 C38.11 844.96 38.11 844.96 38.11 846.63 C38.11 850.17 38.11 853.72 38.1 857.26 C38.1 859.44 38.1 861.62 38.09 863.8 C38.09 871.91 38.08 880.02 38.06 888.12 C38.04 906.23 38.02 924.34 38 943 C86.51 943.33 135.02 943.66 185 944 C185 944.66 185 945.32 185 946 C185.93 946.27 186.86 946.54 187.81 946.81 C192.75 948.65 194.59 951.39 197 956 C199.35 962.38 199.28 968.42 199.25 975.17 C199.26 976.39 199.26 977.61 199.26 978.88 C199.27 982.26 199.27 985.65 199.26 989.03 C199.26 992.69 199.26 996.34 199.27 1000 C199.28 1007.16 199.28 1014.31 199.27 1021.47 C199.27 1027.28 199.27 1033.1 199.27 1038.91 C199.27 1039.74 199.27 1040.57 199.27 1041.42 C199.27 1043.1 199.27 1044.78 199.27 1046.46 C199.28 1062.23 199.27 1077.99 199.26 1093.75 C199.25 1107.28 199.25 1120.81 199.26 1134.34 C199.27 1150.05 199.28 1165.76 199.27 1181.47 C199.27 1183.14 199.27 1184.82 199.27 1186.49 C199.27 1187.31 199.27 1188.14 199.27 1188.99 C199.26 1194.8 199.27 1200.61 199.27 1206.42 C199.28 1213.49 199.28 1220.57 199.27 1227.65 C199.26 1231.26 199.26 1234.87 199.27 1238.48 C199.27 1242.39 199.26 1246.3 199.25 1250.21 C199.26 1251.36 199.26 1252.51 199.27 1253.69 C199.26 1254.74 199.26 1255.78 199.25 1256.86 C199.25 1257.76 199.25 1258.66 199.25 1259.59 C198.98 1262.15 198.29 1263.79 197 1266 C196.34 1266 195.68 1266 195 1266 C195.23 1266.54 195.45 1267.07 195.69 1267.62 C196.16 1271.2 194.96 1273.05 193 1276 C190.31 1276.88 190.31 1276.88 188 1277 C187.67 1277.99 187.34 1278.98 187 1280 C144.2 1280.14 101.41 1280.24 58.61 1280.31 C53.56 1280.31 48.51 1280.32 43.46 1280.33 C42.45 1280.33 41.45 1280.33 40.41 1280.33 C24.12 1280.36 7.84 1280.41 -8.45 1280.46 C-25.16 1280.52 -41.87 1280.55 -58.58 1280.56 C-68.9 1280.57 -79.21 1280.6 -89.52 1280.65 C-96.59 1280.68 -103.66 1280.69 -110.73 1280.68 C-114.81 1280.68 -118.89 1280.68 -122.97 1280.72 C-126.71 1280.74 -130.44 1280.75 -134.18 1280.73 C-136.17 1280.72 -138.16 1280.75 -140.15 1280.77 C-146.96 1280.71 -151.29 1280.13 -156.5 1275.56 C-161.34 1270.52 -162.87 1265.72 -164 1259 C-164.33 1259 -164.66 1259 -165 1259 C-165.09 1221.44 -165.16 1183.89 -165.2 1146.33 C-165.21 1141.9 -165.21 1137.46 -165.22 1133.03 C-165.22 1132.15 -165.22 1131.26 -165.22 1130.35 C-165.24 1116.06 -165.27 1101.77 -165.31 1087.48 C-165.35 1072.81 -165.37 1058.15 -165.38 1043.48 C-165.38 1034.43 -165.4 1025.38 -165.43 1016.33 C-165.45 1010.13 -165.46 1003.92 -165.45 997.72 C-165.45 994.14 -165.46 990.56 -165.48 986.98 C-165.5 983.09 -165.49 979.21 -165.48 975.32 C-165.49 974.19 -165.5 973.07 -165.52 971.91 C-165.46 965.04 -164.34 960.01 -161 954 C-160.46 953.01 -159.93 952.02 -159.38 951 C-158 949 -158 949 -156 948 C-155.4 947.69 -154.8 947.38 -154.19 947.06 C-149.57 944.82 -146.08 943.75 -140.89 943.76 C-139.67 943.76 -138.44 943.75 -137.18 943.75 C-135.82 943.76 -134.47 943.77 -133.12 943.77 C-131.69 943.77 -130.26 943.77 -128.83 943.77 C-124.96 943.77 -121.09 943.78 -117.21 943.8 C-113.16 943.81 -109.11 943.81 -105.06 943.81 C-97.39 943.82 -89.73 943.84 -82.06 943.86 C-71.7 943.88 -61.33 943.89 -50.97 943.9 C-34.65 943.92 -18.32 943.96 -2 944 C-2 907.04 -2 870.08 -2 832 C-2.66 831.67 -3.32 831.34 -4 831 C-3.67 830.34 -3.34 829.68 -3 829 C-4.65 829 -6.3 829 -8 829 C-8.33 828.01 -8.66 827.02 -9 826 C-11.5 824.78 -11.5 824.78 -14 824 C-14 823.34 -14 822.68 -14 822 C-14.99 822.33 -15.98 822.66 -17 823 C-19.33 820.16 -21.58 817.27 -23.75 814.31 C-24.18 813.73 -24.61 813.15 -25.05 812.55 C-26 811 -26 811 -26 809 C-26.66 809 -27.32 809 -28 809 C-28.84 806.92 -29.67 804.84 -30.5 802.75 C-30.96 801.59 -31.43 800.43 -31.91 799.23 C-33 796 -33 796 -33 792 C-33.66 791.67 -34.32 791.34 -35 791 C-34.67 790.67 -34.34 790.34 -34 790 C-34.33 788.67 -34.66 787.33 -35 786 C-35.07 784.42 -35.09 782.83 -35.06 781.25 C-35.05 780.45 -35.04 779.65 -35.04 778.83 C-35.02 777.92 -35.02 777.92 -35 777 C-35.66 777 -36.32 777 -37 777 C-37.17 775.56 -37.33 774.13 -37.5 772.69 C-37.59 771.89 -37.69 771.09 -37.78 770.26 C-38 768 -38 768 -38 765 C-38.66 765 -39.32 765 -40 765 C-40.14 764.12 -40.14 764.12 -40.28 763.23 C-41.17 760.47 -42.44 759.32 -44.56 757.38 C-45.74 756.29 -46.9 755.17 -48 754 C-48 753.34 -48 752.68 -48 752 C-49.64 752.06 -49.64 752.06 -51.31 752.12 C-55 752 -55 752 -58 750 C-60.08 749.62 -60.08 749.62 -62.31 749.5 C-67.01 749.07 -70.98 747.87 -75.31 746 C-77.72 745.1 -79.93 744.57 -82.44 744.06 C-86.34 743.25 -89.46 741.85 -93 740 C-95.74 739.3 -95.74 739.3 -98 739 C-98 738.67 -98 738.34 -98 738 C-98.56 737.9 -99.11 737.8 -99.69 737.7 C-104.58 736.74 -108.63 735.37 -113.02 733.01 C-115.06 731.97 -117.1 731.16 -119.25 730.38 C-126.16 727.84 -126.16 727.84 -129 725 C-129.85 724.84 -130.69 724.67 -131.56 724.5 C-132.37 724.34 -133.17 724.17 -134 724 C-134.33 723.34 -134.66 722.68 -135 722 C-137.02 721.35 -137.02 721.35 -139 721 C-139 720.34 -139 719.68 -139 719 C-140.65 719 -142.3 719 -144 719 C-144.33 718.34 -144.66 717.68 -145 717 C-146.32 716.63 -147.66 716.31 -149 716 C-151.19 715.12 -151.19 715.12 -153 714 C-153.33 713.01 -153.66 712.02 -154 711 C-156.32 710.28 -158.65 709.62 -161 709 C-161.66 708.34 -162.32 707.68 -163 707 C-164.65 706.29 -166.32 705.62 -168 705 C-168 704.01 -168 703.02 -168 702 C-170.21 701.97 -172.42 701.95 -174.62 701.94 C-175.85 701.93 -177.08 701.91 -178.35 701.9 C-181.95 701.91 -181.95 701.91 -185.27 702.57 C-188 703 -188 703 -191 702 C-191 702.99 -191 703.98 -191 705 C-192.57 706.25 -192.57 706.25 -194.69 707.44 C-197.29 708.95 -199.47 710.39 -201.81 712.31 C-204 714 -204 714 -207 714 C-207 714.66 -207 715.32 -207 716 C-209.95 718.74 -210.77 719 -215 719 C-215.33 719.99 -215.66 720.98 -216 722 C-217.32 722 -218.64 722 -220 722 C-220 722.66 -220 723.32 -220 724 C-221.65 724 -223.3 724 -225 724 C-225 724.66 -225 725.32 -225 726 C-230.09 727.7 -235.42 727.23 -240.75 727.25 C-241.92 727.27 -243.09 727.29 -244.29 727.31 C-250.64 727.34 -255.4 727.11 -261 724 C-261 723.34 -261 722.68 -261 722 C-262.32 722.33 -263.64 722.66 -265 723 C-265 722.34 -265 721.68 -265 721 C-265.66 721 -266.32 721 -267 721 C-267 720.34 -267 719.68 -267 719 C-267.74 718.9 -268.48 718.8 -269.25 718.7 C-275.39 717.13 -280.49 711.07 -284 706 C-285.07 704.04 -286.06 702.03 -287 700 C-287.33 699.31 -287.66 698.61 -288 697.9 C-288.35 697.15 -288.7 696.4 -289.06 695.62 C-289.54 694.59 -289.54 694.59 -290.04 693.54 C-292.48 687.11 -293.32 681.26 -293.25 674.44 C-293.26 673.72 -293.27 673.01 -293.27 672.27 C-293.25 666.14 -291.87 661.02 -289.44 655.38 C-287.9 652.2 -287.9 652.2 -287.69 649.38 C-286.64 645.76 -283.86 644.34 -281 642 C-280.31 640.34 -279.64 638.68 -279 637 C-277.67 636.32 -276.34 635.65 -275 635 C-274.4 633.1 -274.4 633.1 -274 631 C-273.54 630.43 -273.08 629.86 -272.61 629.28 C-270.61 626.45 -269.76 623.75 -268.75 620.44 C-268.39 619.3 -268.04 618.17 -267.67 617 C-266.72 613.97 -266.72 613.97 -268 611 C-268.14 610.07 -268.29 609.14 -268.44 608.19 C-269.01 604.95 -269.79 602.05 -271 599 C-316.32 576.34 -372.33 597 -423 597 C-422.67 711.18 -422.34 825.36 -422 943 C-373.49 943.33 -324.98 943.66 -275 944 C-275 944.66 -275 945.32 -275 946 C-274.28 946.06 -273.56 946.12 -272.81 946.19 C-269.1 947.26 -267.49 949.1 -265 952 C-264.67 952.99 -264.34 953.98 -264 955 C-263.34 955.66 -262.68 956.32 -262 957 C-262.33 957.99 -262.66 958.98 -263 960 C-262.34 960 -261.68 960 -261 960 C-260.01 962.98 -259.87 964.92 -259.87 968.03 C-259.87 969.6 -259.87 969.6 -259.87 971.2 C-259.87 972.93 -259.87 972.93 -259.87 974.69 C-259.87 975.91 -259.87 977.13 -259.87 978.39 C-259.86 981.79 -259.87 985.19 -259.87 988.58 C-259.87 992.24 -259.87 995.9 -259.87 999.56 C-259.86 1006.74 -259.86 1013.91 -259.86 1021.08 C-259.87 1026.91 -259.87 1032.74 -259.87 1038.57 C-259.87 1039.4 -259.87 1040.23 -259.87 1041.08 C-259.87 1042.76 -259.87 1044.45 -259.86 1046.13 C-259.86 1061.92 -259.87 1077.72 -259.87 1093.51 C-259.88 1107.07 -259.87 1120.63 -259.87 1134.19 C-259.86 1149.93 -259.86 1165.66 -259.87 1181.4 C-259.87 1183.08 -259.87 1184.75 -259.87 1186.43 C-259.87 1187.25 -259.87 1188.08 -259.87 1188.93 C-259.87 1194.75 -259.87 1200.58 -259.86 1206.4 C-259.86 1213.49 -259.86 1220.59 -259.87 1227.68 C-259.87 1231.3 -259.87 1234.93 -259.87 1238.55 C-259.86 1242.47 -259.87 1246.39 -259.87 1250.31 C-259.87 1252.04 -259.87 1252.04 -259.87 1253.8 C-259.87 1254.85 -259.87 1255.89 -259.87 1256.97 C-259.87 1257.88 -259.87 1258.78 -259.87 1259.71 C-260 1262 -260 1262 -261 1265 C-261.66 1265 -262.32 1265 -263 1265 C-263.12 1265.74 -263.25 1266.48 -263.38 1267.25 C-263.96 1269.83 -264.63 1271.75 -266 1274 C-266.66 1274.33 -267.32 1274.66 -268 1275 C-268.33 1275.66 -268.66 1276.32 -269 1277 C-269.99 1277 -270.98 1277 -272 1277 C-272.33 1277.99 -272.66 1278.98 -273 1280 C-315.83 1280.09 -358.66 1280.16 -401.49 1280.2 C-406.54 1280.21 -411.6 1280.21 -416.65 1280.22 C-417.66 1280.22 -418.66 1280.22 -419.7 1280.22 C-436 1280.24 -452.3 1280.27 -468.61 1280.31 C-485.33 1280.35 -502.05 1280.37 -518.77 1280.38 C-529.09 1280.38 -539.41 1280.4 -549.74 1280.43 C-556.81 1280.45 -563.88 1280.46 -570.96 1280.45 C-575.04 1280.45 -579.13 1280.46 -583.21 1280.48 C-586.95 1280.5 -590.69 1280.5 -594.42 1280.48 C-596.42 1280.48 -598.41 1280.5 -600.41 1280.52 C-611.3 1280.44 -611.3 1280.44 -616 1276 C-616.33 1275.34 -616.66 1274.68 -617 1274 C-617.66 1273.67 -618.32 1273.34 -619 1273 C-621.58 1269.42 -622.38 1266.93 -622.38 1262.54 C-622.39 1261.45 -622.39 1260.36 -622.4 1259.24 C-622.39 1258.05 -622.39 1256.85 -622.38 1255.63 C-622.39 1253.72 -622.39 1253.72 -622.4 1251.77 C-622.41 1248.25 -622.4 1244.73 -622.39 1241.2 C-622.39 1237.4 -622.4 1233.6 -622.4 1229.79 C-622.42 1222.35 -622.41 1214.9 -622.41 1207.45 C-622.4 1201.4 -622.4 1195.34 -622.4 1189.29 C-622.4 1188.43 -622.4 1187.57 -622.4 1186.68 C-622.4 1184.93 -622.4 1183.18 -622.41 1181.44 C-622.41 1165.03 -622.4 1148.62 -622.39 1132.22 C-622.37 1118.14 -622.38 1104.06 -622.39 1089.98 C-622.41 1073.63 -622.41 1057.28 -622.4 1040.94 C-622.4 1039.19 -622.4 1037.45 -622.4 1035.71 C-622.4 1034.42 -622.4 1034.42 -622.4 1033.11 C-622.4 1027.06 -622.4 1021.02 -622.41 1014.97 C-622.42 1007.6 -622.42 1000.24 -622.4 992.87 C-622.39 989.11 -622.39 985.35 -622.4 981.59 C-622.41 977.52 -622.4 973.45 -622.38 969.37 C-622.39 968.18 -622.39 966.99 -622.4 965.76 C-622.39 964.67 -622.39 963.58 -622.38 962.46 C-622.38 961.52 -622.38 960.58 -622.38 959.61 C-621.7 954.92 -618.9 951.59 -615.69 948.25 C-615.13 947.66 -614.58 947.06 -614.01 946.45 C-572.93 916.78 -512.68 944 -462 944 C-462 821.57 -462 699.14 -462 573 C-461.34 573 -460.68 573 -460 573 C-460 572.34 -460 571.68 -460 571 C-460.66 570.67 -461.32 570.34 -462 570 C-461.34 570 -460.68 570 -460 570 C-459.75 569.09 -459.5 568.18 -459.25 567.25 C-457.86 563.65 -457.11 562.26 -454 560 C-445.96 556.57 -437.88 556.56 -429.28 556.57 C-427.82 556.56 -426.36 556.55 -424.9 556.54 C-420.97 556.51 -417.03 556.5 -413.1 556.49 C-408.98 556.48 -404.86 556.46 -400.74 556.43 C-392.95 556.39 -385.15 556.36 -377.36 556.34 C-368.49 556.31 -359.61 556.27 -350.74 556.22 C-332.49 556.13 -314.25 556.06 -296 556 C-296.42 554.83 -296.84 553.66 -297.28 552.46 C-297.83 550.91 -298.38 549.36 -298.94 547.81 C-299.22 547.04 -299.49 546.27 -299.78 545.48 C-300.91 542.32 -301.94 539.32 -302.57 536.01 C-302.71 535.35 -302.85 534.68 -303 534 C-303.66 533.67 -304.32 533.34 -305 533 C-305.78 530.64 -305.78 530.64 -306.5 527.69 C-307.45 523.75 -307.45 523.75 -308.99 520.02 C-310.29 517.42 -310.93 514.82 -311.62 512 C-311.89 510.97 -312.15 509.94 -312.41 508.88 C-313 506 -313 506 -313 502 C-313.66 501.67 -314.32 501.34 -315 501 C-315.26 499.02 -315.52 497.04 -315.72 495.05 C-316.07 492.48 -316.94 490.37 -318 488 C-318.34 486.58 -318.34 486.58 -318.69 485.12 C-320.81 480.08 -324.56 476.39 -329.31 473.69 C-332.81 472.79 -336.34 472.1 -339.89 471.46 C-342 471 -342 471 -343 470 C-344.77 469.84 -346.54 469.72 -348.31 469.62 C-354.77 469.15 -360.78 467.75 -367 466 C-367 465.34 -367 464.68 -367 464 C-367.7 463.9 -368.4 463.79 -369.12 463.69 C-372.39 462.91 -375.05 461.58 -378 460 C-378 459.01 -378 458.02 -378 457 C-378.78 456.86 -379.57 456.71 -380.38 456.56 C-383 456 -383 456 -385 455 C-385 454.34 -385 453.68 -385 453 C-385.66 453 -386.32 453 -387 453 C-387.41 452.09 -387.82 451.19 -388.25 450.25 C-389.77 447.03 -389.77 447.03 -391.94 445.13 C-394.23 442.76 -395.35 440.63 -396.69 437.62 C-397.1 436.71 -397.52 435.79 -397.95 434.85 C-400.32 428.43 -400.21 421.95 -400.25 415.19 C-400.28 413.77 -400.28 413.77 -400.31 412.32 C-400.35 406 -399.4 400.85 -397 395 C-396.34 395 -395.68 395 -395 395 C-394.85 393.95 -394.85 393.95 -394.69 392.88 C-392.84 385.15 -388 379.99 -382 375 C-380.35 374.28 -378.69 373.61 -377 373 C-376.55 372.53 -376.09 372.05 -375.62 371.56 C-372.04 368.12 -367.91 367.04 -363.06 366.81 C-362.05 366.87 -361.04 366.94 -360 367 C-359.67 366.34 -359.34 365.68 -359 365 C-357.07 364.62 -357.07 364.62 -354.69 364.44 C-351.68 364.19 -348.91 363.79 -346 363 C-343 362.33 -340.14 361.92 -337.06 361.62 C-331.02 360.87 -326.56 358.25 -322.39 353.89 C-319.58 350.08 -317 344.8 -317 340 C-316.34 340 -315.68 340 -315 340 C-315.03 338.08 -315.03 338.08 -315.06 336.12 C-315.12 332.25 -315.12 332.25 -314 330 C-313.62 328.63 -313.27 327.26 -312.94 325.88 C-312.63 324.6 -312.32 323.32 -312 322 C-311.34 322 -310.68 322 -310 322 C-310.33 321.01 -310.66 320.02 -311 319 C-309.94 314.49 -308.38 310.23 -306.72 305.91 C-305.73 303.3 -304.87 300.65 -304 298 C-303.33 296 -302.67 294 -302 292 C-301.34 292 -300.68 292 -300 292 C-300.04 291.05 -300.08 290.1 -300.12 289.12 C-300 286 -300 286 -298 284 C-297.36 281.93 -297.36 281.93 -297 280 C-296.34 280 -295.68 280 -295 280 C-295 278.35 -295 276.7 -295 275 C-294.34 275 -293.68 275 -293 275 C-293.02 274.05 -293.04 273.1 -293.06 272.12 C-293 269 -293 269 -292 267 C-291.34 267 -290.68 267 -290 267 C-289.67 265.35 -289.34 263.7 -289 262 C-288.34 262 -287.68 262 -287 262 C-286.9 261.26 -286.79 260.51 -286.69 259.75 C-285.95 256.8 -284.88 255.35 -283 253 C-282.67 252.01 -282.34 251.02 -282 250 C-281.34 250 -280.68 250 -280 250 C-279.9 249.3 -279.79 248.6 -279.69 247.88 C-278.51 242.97 -276.52 239.52 -273 236 C-272.29 233.9 -272.29 233.9 -272 232 C-271.34 232 -270.68 232 -270 232 C-269.88 231.3 -269.75 230.6 -269.62 229.88 C-269 227 -269 227 -267.88 224.25 C-266.43 218.9 -267.19 214.15 -269.12 209 C-271.35 205.45 -273.89 202.27 -276.57 199.05 C-278 197 -278 197 -278 194 C-278.66 193.67 -279.32 193.34 -280 193 C-289.72 182.29 -293.19 169.54 -293.12 155.38 C-293.13 154.53 -293.13 153.68 -293.14 152.81 C-293.13 151.59 -293.13 151.59 -293.13 150.34 C-293.13 149.6 -293.13 148.86 -293.13 148.1 C-293 145.96 -292.59 144.06 -292 142 C-291.34 142 -290.68 142 -290 142 C-290 139.69 -290 137.38 -290 135 C-289.34 134.67 -288.68 134.34 -288 134 C-287.73 133.26 -287.46 132.51 -287.19 131.75 C-285.73 128.38 -283.57 126.57 -281 124 C-280.83 123.28 -280.67 122.56 -280.5 121.81 C-280.33 121.21 -280.17 120.62 -280 120 C-278.34 119.32 -276.67 118.65 -275 118 C-273.87 117.07 -272.77 116.11 -271.69 115.12 C-268.22 112.04 -264.5 109.34 -260 108 C-257.76 108.4 -257.76 108.4 -256 109 C-256 108.34 -256 107.68 -256 107 C-252.37 107 -248.74 107 -245 107 C-245 106.34 -245 105.68 -245 105 C-243.35 105 -241.7 105 -240 105 C-240 105.33 -240 105.66 -240 106 C-239.07 106.12 -238.14 106.24 -237.18 106.37 C-224.91 108.03 -224.91 108.03 -219 110 C-219 110.66 -219 111.32 -219 112 C-218.09 112.27 -217.19 112.54 -216.25 112.81 C-213.17 113.94 -211.56 115.04 -209 117 C-206.1 118.82 -203.19 120.6 -200.27 122.38 C-199.52 122.91 -198.77 123.45 -198 124 C-198 124.66 -198 125.32 -198 126 C-197.46 126.27 -196.93 126.54 -196.38 126.81 C-194.66 127.67 -192.98 128.59 -191.32 129.55 C-187.47 131.23 -184.69 131.4 -180.5 131.38 C-179.23 131.38 -177.96 131.39 -176.66 131.4 C-171.68 130.86 -168.4 128.95 -164.31 126.19 C-160.5 123.67 -156.54 121.58 -152.49 119.46 C-150.02 118.16 -150.02 118.16 -148.46 116.44 C-146.58 114.59 -144.78 113.97 -142.31 113.06 C-136.56 110.87 -131.13 108.42 -126 105 C-124.89 104.69 -123.77 104.38 -122.62 104.06 C-119.04 103.18 -119.04 103.18 -116.31 101.38 C-114 100 -114 100 -110 100 C-110 99.34 -110 98.68 -110 98 C-107.36 97.67 -104.72 97.34 -102 97 C-102 96.34 -102 95.68 -102 95 C-96.9 93.09 -92.54 91.57 -87 92 C-87 91.34 -87 90.68 -87 90 C-86.36 89.87 -85.72 89.73 -85.07 89.6 C-83.83 89.33 -83.83 89.33 -82.56 89.06 C-81.74 88.89 -80.92 88.71 -80.07 88.54 C-78.02 88.19 -78.02 88.19 -77 87 C-75.33 86.96 -73.67 86.96 -72 87 C-71.67 86.34 -71.34 85.68 -71 85 C-70.34 85 -69.68 85 -69 85 C-67.31 84.71 -65.62 84.39 -63.94 84.06 C-63.04 83.89 -62.14 83.71 -61.21 83.54 C-59.04 83.21 -59.04 83.21 -58 82 C-56 81.96 -54 81.96 -52 82 C-52 81.34 -52 80.68 -52 80 C-51.3 79.79 -50.6 79.59 -49.88 79.38 C-45.38 77.23 -42.09 74.43 -40.02 69.82 C-39.27 67.56 -38.62 65.3 -38 63 C-37.38 61.3 -37.38 61.3 -36.75 59.56 C-35.7 57.04 -35.7 57.04 -37 55 C-36.34 55 -35.68 55 -35 55 C-35.02 54.36 -35.05 53.72 -35.07 53.06 C-35.18 47.61 -34.71 43.23 -33 38 C-32.64 36.01 -32.29 34.01 -32 32 C-31.34 32 -30.68 32 -30 32 C-29.88 30.91 -29.75 29.81 -29.62 28.69 C-29 25 -29 25 -27 22 C-26.34 22 -25.68 22 -25 22 C-24.92 21.27 -24.85 20.55 -24.77 19.8 C-23.81 16.3 -22.32 14.78 -19.75 12.25 C-18.98 11.47 -18.21 10.69 -17.42 9.89 C-14.85 7.88 -13.21 7.34 -10 7 C-10 6.34 -10 5.68 -10 5 C-6.68 3.58 -3.56 2.61 0 2 C0 1.34 0 0.68 0 0 Z M57 19 C58 21 58 21 58 21 Z M325 144 C325 147.3 325 150.6 325 154 C325.33 154 325.66 154 326 154 C326 150.7 326 147.4 326 144 C325.67 144 325.34 144 325 144 Z M325 158 C325 162.62 325 167.24 325 172 C325.33 172 325.66 172 326 172 C326 167.38 326 162.76 326 158 C325.67 158 325.34 158 325 158 Z M320 181 C321 183 321 183 321 183 Z M-292 269 C-291 271 -291 271 -291 271 Z M332 286 C333 288 333 288 333 288 Z M-306 305 C-305 307 -305 307 -305 307 Z M340 307 C341 309 341 309 341 309 Z M342 313 C343 315 343 315 343 315 Z M345 322 C345 323.98 345 325.96 345 328 C345.33 328 345.66 328 346 328 C346 326.02 346 324.04 346 322 C345.67 322 345.34 322 345 322 Z M-391 385 C-390 387 -390 387 -390 387 Z M382 467 C382 467.33 382 467.66 382 468 C384.97 468 387.94 468 391 468 C391 467.67 391 467.34 391 467 C388.03 467 385.06 467 382 467 Z M355 477 C355 477.66 355 478.32 355 479 C354.01 479.5 354.01 479.5 353 480 C353.99 480 354.98 480 356 480 C356.33 479.01 356.66 478.02 357 477 C356.34 477 355.68 477 355 477 Z M-286 648 C-285 650 -285 650 -285 650 Z M325 662 C325 665.63 325 669.26 325 673 C325.33 673 325.66 673 326 673 C326 669.37 326 665.74 326 662 C325.67 662 325.34 662 325 662 Z M320 697 C320.33 697.66 320.66 698.32 321 699 C321.33 698.34 321.66 697.68 322 697 C321.34 697 320.68 697 320 697 Z M200 702 C200.33 702.66 200.66 703.32 201 704 C201.33 703.34 201.66 702.68 202 702 C201.34 702 200.68 702 200 702 Z M-200 707 C-199 709 -199 709 -199 709 Z M305 716 C305.33 716.66 305.66 717.32 306 718 C306.33 717.34 306.66 716.68 307 716 C306.34 716 305.68 716 305 716 Z M75 757 C76 759 76 759 76 759 Z M35 834 C35 869.97 35 905.94 35 943 C35.33 943 35.66 943 36 943 C36 907.03 36 871.06 36 834 C35.67 834 35.34 834 35 834 Z M-263 1262 C-262 1264 -262 1264 -262 1264 Z M195 1262 C195.33 1262.66 195.66 1263.32 196 1264 C196.33 1263.34 196.66 1262.68 197 1262 C196.34 1262 195.68 1262 195 1262 Z " fill="#5BA3F9" transform="translate(622,0)"/>
<path d="M0 0 C0.83 0.61 1.67 1.22 2.52 1.86 C4.72 3.53 6.86 5.25 9 7 C10.35 8.07 10.35 8.07 11.73 9.17 C26.09 20.89 39.81 34.19 51 49 C51.8 50.01 52.6 51.02 53.43 52.05 C59.06 59.16 64.14 66.51 68.9 74.23 C69.98 75.96 71.08 77.69 72.18 79.41 C97.69 119.96 109.26 167.45 109.19 215.06 C109.19 216.22 109.19 216.22 109.19 217.4 C109.16 229.37 108.81 241.15 107 253 C106.88 253.84 106.75 254.68 106.63 255.55 C101.08 292.19 87.94 328.3 67 359 C66.54 359.69 66.07 360.38 65.59 361.09 C58.69 371.32 51.22 380.8 43 390 C42.21 390.9 41.41 391.81 40.6 392.74 C32.89 401.44 24.87 409.54 15.77 416.79 C13.95 418.24 12.16 419.71 10.39 421.21 C3.52 427.01 -3.72 432 -11.25 436.87 C-12.79 437.87 -14.32 438.88 -15.84 439.91 C-22.9 444.58 -30.31 448.33 -37.92 451.99 C-39.91 452.95 -41.86 453.96 -43.82 454.97 C-63.43 464.92 -85.41 471.1 -107 475 C-107.88 475.16 -108.76 475.32 -109.66 475.49 C-153.43 483.14 -200.17 478.37 -242 464 C-242.98 463.67 -242.98 463.67 -243.98 463.33 C-253.73 459.95 -262.92 455.81 -272.06 451.01 C-273.93 450.04 -275.82 449.08 -277.71 448.13 C-297.87 437.87 -316.81 424.26 -333.18 408.67 C-335.44 406.53 -337.74 404.5 -340.12 402.5 C-345.55 397.81 -350.23 392.34 -355 387 C-355.91 386.02 -355.91 386.02 -356.84 385.01 C-386.23 352.68 -405.26 309.46 -413.88 267 C-414.07 266.06 -414.26 265.12 -414.45 264.15 C-417.32 249.06 -418.33 234.08 -418.26 218.74 C-418.25 216.07 -418.26 213.39 -418.27 210.72 C-418.29 194.9 -417.03 179.33 -413.81 163.81 C-413.49 162.25 -413.49 162.25 -413.16 160.65 C-403.31 114.39 -381.98 72.22 -350.1 37.32 C-348.27 35.29 -346.51 33.22 -344.75 31.12 C-334.45 19.32 -321.79 9.47 -309.25 0.19 C-308.64 -0.27 -308.02 -0.73 -307.39 -1.2 C-303.4 -4.11 -299.32 -6.59 -295 -9 C-293.02 -10.24 -291.04 -11.49 -289.06 -12.75 C-206.9 -63.64 -97.73 -60.56 0 0 Z " fill="#E6F2FC" transform="translate(794,202)"/>
<path d="M0 0 C11.33 2.72 21.82 1.65 33.19 -0.44 C34.37 1.93 34.31 3.34 34.31 5.98 C34.31 7.37 34.31 7.37 34.31 8.79 C34.31 9.81 34.3 10.83 34.3 11.89 C34.3 12.98 34.3 14.07 34.3 15.19 C34.3 18.73 34.29 22.28 34.29 25.82 C34.28 28 34.28 30.18 34.28 32.37 C34.28 40.47 34.26 48.58 34.25 56.69 C34.23 74.8 34.21 92.9 34.19 111.56 C82.7 111.89 131.21 112.22 181.19 112.56 C181.19 113.22 181.19 113.88 181.19 114.56 C182.12 114.83 183.04 115.1 184 115.38 C188.94 117.22 190.78 119.95 193.19 124.56 C195.54 130.94 195.47 136.98 195.44 143.73 C195.44 144.95 195.45 146.18 195.45 147.44 C195.46 150.82 195.46 154.21 195.45 157.59 C195.44 161.25 195.45 164.91 195.46 168.56 C195.47 175.72 195.46 182.87 195.46 190.03 C195.45 195.84 195.45 201.66 195.46 207.47 C195.46 208.3 195.46 209.13 195.46 209.98 C195.46 211.66 195.46 213.34 195.46 215.03 C195.46 230.79 195.46 246.55 195.45 262.31 C195.44 275.84 195.44 289.37 195.45 302.9 C195.46 318.61 195.46 334.32 195.46 350.03 C195.46 351.7 195.46 353.38 195.46 355.05 C195.45 355.88 195.45 356.7 195.45 357.55 C195.45 363.36 195.46 369.17 195.46 374.98 C195.47 382.06 195.46 389.13 195.45 396.21 C195.45 399.82 195.45 403.43 195.45 407.04 C195.46 410.96 195.45 414.87 195.44 418.78 C195.45 419.92 195.45 421.07 195.45 422.25 C195.45 423.3 195.44 424.34 195.44 425.42 C195.44 426.32 195.44 427.23 195.44 428.16 C195.17 430.72 194.48 432.36 193.19 434.56 C192.53 434.56 191.87 434.56 191.19 434.56 C191.41 435.1 191.64 435.63 191.88 436.19 C192.35 439.76 191.15 441.62 189.19 444.56 C186.5 445.44 186.5 445.44 184.19 445.56 C183.86 446.55 183.53 447.54 183.19 448.56 C140.39 448.7 97.6 448.81 54.8 448.87 C49.75 448.88 44.7 448.88 39.65 448.89 C38.64 448.89 37.63 448.9 36.6 448.9 C20.31 448.92 4.02 448.97 -12.26 449.03 C-28.97 449.08 -45.68 449.11 -62.4 449.13 C-72.71 449.14 -83.02 449.16 -93.33 449.21 C-100.4 449.24 -107.47 449.25 -114.54 449.24 C-118.62 449.24 -122.7 449.25 -126.78 449.28 C-130.52 449.31 -134.26 449.31 -137.99 449.29 C-139.98 449.28 -141.97 449.31 -143.96 449.34 C-150.77 449.27 -155.1 448.69 -160.31 444.12 C-165.15 439.08 -166.68 434.28 -167.81 427.56 C-168.14 427.56 -168.47 427.56 -168.81 427.56 C-168.9 390.01 -168.97 352.45 -169.02 314.9 C-169.02 310.46 -169.03 306.03 -169.03 301.59 C-169.03 300.71 -169.03 299.83 -169.04 298.92 C-169.05 284.63 -169.08 270.33 -169.12 256.04 C-169.16 241.38 -169.18 226.71 -169.19 212.04 C-169.19 202.99 -169.21 193.95 -169.24 184.9 C-169.27 178.69 -169.27 172.48 -169.27 166.28 C-169.26 162.7 -169.27 159.12 -169.29 155.54 C-169.31 151.65 -169.3 147.77 -169.29 143.88 C-169.31 142.76 -169.32 141.63 -169.33 140.47 C-169.28 133.61 -168.15 128.57 -164.81 122.56 C-164.28 121.57 -163.74 120.58 -163.19 119.56 C-161.81 117.56 -161.81 117.56 -159.81 116.56 C-159.21 116.25 -158.62 115.94 -158 115.62 C-153.38 113.38 -149.89 112.31 -144.71 112.32 C-143.48 112.32 -142.25 112.32 -140.99 112.31 C-139.64 112.32 -138.29 112.33 -136.93 112.34 C-135.51 112.34 -134.08 112.34 -132.65 112.33 C-128.77 112.33 -124.9 112.35 -121.03 112.36 C-116.98 112.37 -112.92 112.37 -108.87 112.38 C-101.21 112.38 -93.54 112.4 -85.87 112.42 C-75.51 112.45 -65.15 112.46 -54.78 112.47 C-38.46 112.49 -22.14 112.53 -5.81 112.56 C-5.81 75.6 -5.81 38.64 -5.81 0.56 C-6.8 0.07 -6.8 0.07 -7.81 -0.44 C-4.88 -1.9 -3.13 -0.85 0 0 Z M31.19 2.56 C31.19 38.53 31.19 74.5 31.19 111.56 C31.52 111.56 31.85 111.56 32.19 111.56 C32.19 75.59 32.19 39.62 32.19 2.56 C31.86 2.56 31.53 2.56 31.19 2.56 Z M191.19 430.56 C191.52 431.22 191.85 431.88 192.19 432.56 C192.52 431.9 192.85 431.24 193.19 430.56 C192.53 430.56 191.87 430.56 191.19 430.56 Z " fill="#5AA2F8" transform="translate(625.8125,831.4375)"/>
<path d="M0 0 C0.33 0 0.66 0 1 0 C1.33 121.44 1.66 242.88 2 368 C50.18 368.33 98.36 368.66 148 369 C151.3 371.97 154.6 374.94 158 378 C159.32 378.66 160.64 379.32 162 380 C162 483.62 162 587.24 162 694 C161.01 694.33 160.02 694.66 159 695 C158.63 696.32 158.29 697.66 158 699 C157.34 699.33 156.68 699.66 156 700 C155.67 700.66 155.34 701.32 155 702 C154.01 702 153.02 702 152 702 C151.67 702.99 151.34 703.98 151 705 C38.8 705 -73.4 705 -189 705 C-189 704.01 -189 703.02 -189 702 C-189.8 701.77 -190.61 701.55 -191.44 701.31 C-192.71 700.66 -192.71 700.66 -194 700 C-194.81 697.38 -194.81 697.38 -195 695 C-195.99 694.67 -196.98 694.34 -198 694 C-201.21 686.17 -201.43 677.8 -201.37 669.46 C-201.37 668.26 -201.37 667.05 -201.38 665.81 C-201.38 662.51 -201.38 659.2 -201.36 655.89 C-201.35 652.32 -201.36 648.74 -201.36 645.16 C-201.37 638.16 -201.36 631.17 -201.34 624.18 C-201.32 616.03 -201.32 607.88 -201.32 599.73 C-201.32 585.2 -201.31 570.67 -201.28 556.13 C-201.26 542.03 -201.24 527.93 -201.24 513.83 C-201.24 512.96 -201.24 512.09 -201.24 511.19 C-201.24 509.44 -201.24 507.69 -201.24 505.93 C-201.24 505.07 -201.24 504.2 -201.24 503.31 C-201.24 502.45 -201.24 501.59 -201.24 500.7 C-201.23 487.25 -201.22 473.81 -201.21 460.36 C-201.21 455.49 -201.2 450.61 -201.2 445.74 C-201.19 438.02 -201.19 430.3 -201.17 422.57 C-201.17 419.04 -201.16 415.51 -201.16 411.99 C-201.16 408.17 -201.15 404.34 -201.14 400.52 C-201.14 399.4 -201.14 398.28 -201.14 397.13 C-201.14 395.6 -201.14 395.6 -201.13 394.03 C-201.13 393.15 -201.13 392.27 -201.13 391.36 C-200.73 383.95 -197.4 377.97 -192 373 C-143.63 331.08 -64.01 369 0 369 C0 247.23 0 125.46 0 0 Z " fill="#F8DF7E" transform="translate(1118,575)"/>
<path d="M0 0 C0.69 0.03 1.37 0.05 2.08 0.08 C3.85 0.15 5.61 0.22 7.38 0.3 C9.91 0.47 9.91 0.47 11.92 -0.71 C13.86 -0.79 15.8 -0.81 17.74 -0.8 C18.98 -0.79 20.22 -0.78 21.5 -0.77 C22.88 -0.76 24.26 -0.75 25.64 -0.73 C27.09 -0.72 28.54 -0.71 29.98 -0.71 C33.92 -0.68 37.86 -0.65 41.8 -0.61 C45.92 -0.58 50.03 -0.55 54.15 -0.52 C61.94 -0.46 69.74 -0.4 77.53 -0.34 C86.41 -0.27 95.28 -0.2 104.15 -0.14 C122.41 -0 140.66 0.14 158.92 0.29 C158.92 0.95 158.92 1.61 158.92 2.29 C159.64 2.35 160.36 2.41 161.11 2.47 C164.82 3.55 166.43 5.38 168.92 8.29 C169.25 9.28 169.58 10.27 169.92 11.29 C170.58 11.95 171.24 12.61 171.92 13.29 C171.59 14.28 171.26 15.27 170.92 16.29 C171.58 16.29 172.24 16.29 172.92 16.29 C173.91 19.27 174.04 21.21 174.04 24.32 C174.05 25.89 174.05 25.89 174.05 27.49 C174.05 29.21 174.05 29.21 174.04 30.98 C174.05 32.2 174.05 33.42 174.05 34.68 C174.05 38.08 174.05 41.47 174.05 44.87 C174.05 48.53 174.05 52.19 174.05 55.85 C174.06 63.02 174.06 70.2 174.05 77.37 C174.05 83.2 174.05 89.03 174.05 94.86 C174.05 95.69 174.05 96.51 174.05 97.37 C174.05 99.05 174.05 100.73 174.05 102.42 C174.06 118.21 174.05 134 174.05 149.8 C174.04 163.36 174.04 176.92 174.05 190.48 C174.05 206.21 174.06 221.95 174.05 237.69 C174.05 239.36 174.05 241.04 174.05 242.72 C174.05 243.54 174.05 244.37 174.05 245.22 C174.05 251.04 174.05 256.86 174.05 262.69 C174.06 269.78 174.06 276.88 174.05 283.97 C174.05 287.59 174.05 291.21 174.05 294.83 C174.05 298.75 174.05 302.67 174.04 306.6 C174.05 307.75 174.05 308.9 174.05 310.09 C174.05 311.13 174.05 312.18 174.04 313.26 C174.04 314.16 174.04 315.07 174.04 316 C173.92 318.29 173.92 318.29 172.92 321.29 C172.26 321.29 171.6 321.29 170.92 321.29 C170.79 322.03 170.67 322.77 170.54 323.54 C169.96 326.12 169.29 328.04 167.92 330.29 C167.26 330.62 166.6 330.95 165.92 331.29 C165.59 331.95 165.26 332.61 164.92 333.29 C163.93 333.29 162.94 333.29 161.92 333.29 C161.59 334.28 161.26 335.27 160.92 336.29 C118.09 336.38 75.26 336.45 32.43 336.49 C27.37 336.5 22.32 336.5 17.27 336.51 C16.26 336.51 15.25 336.51 14.22 336.51 C-2.08 336.53 -18.39 336.56 -34.69 336.6 C-51.41 336.63 -68.13 336.66 -84.85 336.66 C-95.17 336.67 -105.5 336.69 -115.82 336.72 C-122.89 336.74 -129.97 336.75 -137.04 336.74 C-141.12 336.74 -145.21 336.74 -149.29 336.76 C-153.03 336.78 -156.77 336.78 -160.51 336.77 C-162.5 336.77 -164.49 336.79 -166.49 336.8 C-177.38 336.73 -177.38 336.73 -182.08 332.29 C-182.41 331.63 -182.74 330.97 -183.08 330.29 C-183.74 329.96 -184.4 329.63 -185.08 329.29 C-187.66 325.71 -188.46 323.21 -188.46 318.83 C-188.47 317.74 -188.48 316.65 -188.48 315.53 C-188.48 314.33 -188.47 313.14 -188.46 311.91 C-188.47 310.64 -188.47 309.37 -188.48 308.06 C-188.49 304.54 -188.48 301.01 -188.47 297.49 C-188.47 293.68 -188.48 289.88 -188.49 286.08 C-188.5 278.63 -188.5 271.18 -188.49 263.74 C-188.48 257.68 -188.48 251.63 -188.48 245.58 C-188.48 244.72 -188.48 243.86 -188.48 242.97 C-188.49 241.22 -188.49 239.47 -188.49 237.72 C-188.5 221.32 -188.49 204.91 -188.47 188.51 C-188.46 174.42 -188.46 160.34 -188.47 146.26 C-188.49 129.92 -188.5 113.57 -188.49 97.22 C-188.49 95.48 -188.48 93.74 -188.48 92 C-188.48 90.71 -188.48 90.71 -188.48 89.4 C-188.48 83.35 -188.48 77.3 -188.49 71.26 C-188.5 63.89 -188.5 56.53 -188.48 49.16 C-188.47 45.4 -188.47 41.64 -188.48 37.88 C-188.49 33.81 -188.48 29.73 -188.46 25.66 C-188.47 24.47 -188.48 23.28 -188.48 22.05 C-188.48 20.96 -188.47 19.87 -188.46 18.75 C-188.46 17.81 -188.46 16.87 -188.46 15.9 C-187.78 11.21 -184.98 7.87 -181.77 4.54 C-181.22 3.94 -180.66 3.35 -180.09 2.74 C-176.1 -0.14 -170.93 0.16 -166.15 0.12 C-164.98 0.11 -163.82 0.1 -162.62 0.09 C-160.72 0.08 -160.72 0.08 -158.79 0.07 C-157.43 0.05 -156.07 0.04 -154.71 0.03 C-151.02 -0 -147.34 -0.03 -143.65 -0.05 C-140.54 -0.07 -137.43 -0.09 -134.32 -0.12 C-126.95 -0.17 -119.57 -0.22 -112.19 -0.27 C-105.51 -0.31 -98.83 -0.36 -92.14 -0.42 C-82.46 -0.49 -72.77 -0.57 -63.08 -0.63 C-62.3 -0.63 -61.52 -0.64 -60.71 -0.64 C-40.47 -0.77 -20.24 -0.79 0 0 Z M170.92 318.29 C171.92 320.29 171.92 320.29 171.92 320.29 Z " fill="#E6F2FC" transform="translate(188.08203125,943.7129821777344)"/>
<path d="M0 0 C10.52 -0.21 21.04 -0.37 31.56 -0.47 C36.44 -0.51 41.33 -0.58 46.21 -0.68 C50.93 -0.78 55.65 -0.83 60.37 -0.85 C62.17 -0.87 63.96 -0.9 65.76 -0.95 C81.56 -1.36 81.56 -1.36 87.93 4.43 C88.64 5.23 89.35 6.04 90.09 6.87 C92.07 9.34 92.07 9.34 96 11 C96 114.62 96 218.24 96 325 C95.01 325.33 94.02 325.66 93 326 C92.63 327.32 92.29 328.66 92 330 C91.34 330.33 90.68 330.66 90 331 C89.67 331.66 89.34 332.32 89 333 C88.01 333 87.02 333 86 333 C85.67 333.99 85.34 334.98 85 336 C59.26 336 33.52 336 7 336 C7.96 332.15 8.4 331.23 10.94 328.5 C17.12 321.81 17.15 314.63 17.13 305.91 C17.13 305.05 17.13 304.18 17.14 303.3 C17.14 301.48 17.13 299.66 17.13 297.84 C17.13 295.07 17.13 292.31 17.14 289.54 C17.14 287.77 17.13 286 17.13 284.22 C17.14 282.99 17.14 282.99 17.14 281.74 C17.12 277.06 16.78 272.62 16 268 C14.76 268.24 14.76 268.24 13.49 268.49 C9.7 269.04 6 269.15 2.18 269.16 C1.02 269.17 1.02 269.17 -0.15 269.18 C-2.72 269.19 -5.29 269.2 -7.86 269.21 C-9.7 269.22 -11.55 269.23 -13.39 269.24 C-19.44 269.27 -25.49 269.29 -31.54 269.31 C-33.09 269.31 -33.09 269.31 -34.67 269.32 C-44.39 269.35 -54.12 269.38 -63.85 269.39 C-76.27 269.41 -88.7 269.46 -101.12 269.53 C-109.87 269.57 -118.61 269.6 -127.36 269.61 C-132.58 269.61 -137.8 269.63 -143.02 269.66 C-147.93 269.7 -152.84 269.71 -157.76 269.7 C-159.55 269.7 -161.35 269.71 -163.15 269.73 C-173.16 269.84 -181.91 269.83 -190 263 C-193.17 258.63 -194.33 254.71 -193.94 249.31 C-192.68 242.23 -189.86 238.22 -184 234 C-179.79 231.86 -175.9 231.71 -171.27 231.74 C-170.11 231.73 -170.11 231.73 -168.93 231.73 C-166.35 231.72 -163.77 231.72 -161.19 231.73 C-159.34 231.72 -157.49 231.72 -155.64 231.71 C-150.61 231.7 -145.59 231.7 -140.56 231.7 C-136.36 231.7 -132.16 231.69 -127.97 231.69 C-118.06 231.68 -108.16 231.68 -98.26 231.68 C-88.04 231.69 -77.83 231.68 -67.62 231.66 C-58.85 231.64 -50.07 231.63 -41.3 231.64 C-36.06 231.64 -30.83 231.64 -25.59 231.62 C-20.66 231.61 -15.74 231.61 -10.81 231.62 C-9 231.63 -7.2 231.62 -5.39 231.62 C-2.92 231.6 -0.45 231.61 2.02 231.63 C2.73 231.62 3.44 231.61 4.17 231.6 C9.51 231.66 11.67 232.71 17 235 C17 218.17 17 201.34 17 184 C14.36 184.99 11.72 185.98 9 187 C6.25 187.27 3.73 187.41 0.99 187.39 C-0.15 187.4 -0.15 187.4 -1.33 187.4 C-3.87 187.42 -6.41 187.41 -8.95 187.4 C-10.78 187.41 -12.61 187.42 -14.44 187.42 C-19.4 187.44 -24.35 187.44 -29.31 187.44 C-33.45 187.43 -37.59 187.44 -41.74 187.44 C-51.51 187.46 -61.28 187.46 -71.06 187.45 C-81.13 187.43 -91.21 187.45 -101.28 187.48 C-109.94 187.5 -118.6 187.5 -127.26 187.5 C-132.43 187.49 -137.6 187.5 -142.77 187.51 C-147.63 187.53 -152.49 187.53 -157.34 187.51 C-159.12 187.5 -160.9 187.51 -162.68 187.52 C-165.12 187.53 -167.56 187.52 -169.99 187.5 C-170.69 187.51 -171.39 187.52 -172.11 187.53 C-179.24 187.42 -186.04 184.1 -191 179 C-194.72 172.51 -194 167.54 -192.44 160.44 C-188.9 154.43 -183.63 150.83 -177 149 C-174.4 148.82 -171.91 148.73 -169.31 148.74 C-168.55 148.74 -167.8 148.73 -167.02 148.73 C-164.5 148.72 -161.98 148.72 -159.46 148.73 C-157.65 148.72 -155.84 148.72 -154.03 148.71 C-149.12 148.7 -144.21 148.7 -139.3 148.7 C-135.2 148.7 -131.09 148.69 -126.99 148.69 C-117.31 148.68 -107.63 148.68 -97.95 148.68 C-87.97 148.69 -77.99 148.68 -68.01 148.66 C-59.43 148.64 -50.85 148.63 -42.28 148.64 C-37.16 148.64 -32.04 148.64 -26.92 148.62 C-22.11 148.61 -17.29 148.61 -12.48 148.62 C-10.72 148.63 -8.95 148.62 -7.19 148.62 C-4.77 148.6 -2.36 148.61 0.06 148.63 C0.75 148.62 1.44 148.61 2.15 148.6 C7.38 148.66 11.25 150 16 152 C17.01 145.32 17.15 138.8 17.16 132.05 C17.17 130.88 17.17 129.7 17.18 128.49 C17.19 124.62 17.2 120.75 17.2 116.88 C17.21 115.54 17.21 114.2 17.21 112.86 C17.23 106.57 17.24 100.28 17.24 93.99 C17.24 86.75 17.26 79.51 17.29 72.28 C17.31 66.67 17.32 61.05 17.32 55.44 C17.32 52.09 17.33 48.75 17.35 45.41 C17.36 41.67 17.36 37.94 17.36 34.21 C17.37 32.57 17.37 32.57 17.38 30.9 C17.34 23.5 16.47 16.57 12.9 9.97 C12 8 12 8 12 4 C16.29 3.67 20.58 3.34 25 3 C21.78 2.2 19.28 1.82 16.02 1.68 C15.08 1.64 14.15 1.6 13.18 1.56 C12.22 1.52 11.25 1.48 10.25 1.44 C9.27 1.39 8.28 1.35 7.27 1.31 C4.85 1.2 2.42 1.1 0 1 C0 0.67 0 0.34 0 0 Z " fill="#FBD167" transform="translate(1184,944)"/>
<path d="M0 0 C0.67 -0 1.33 -0.01 2.02 -0.01 C4.22 -0.02 6.43 -0.02 8.63 -0.02 C10.16 -0.03 11.7 -0.03 13.23 -0.03 C16.44 -0.04 19.66 -0.04 22.87 -0.04 C26.99 -0.04 31.11 -0.05 35.22 -0.07 C38.39 -0.08 41.55 -0.08 44.72 -0.08 C46.24 -0.08 47.76 -0.09 49.27 -0.1 C51.4 -0.11 53.52 -0.1 55.65 -0.1 C56.86 -0.1 58.07 -0.1 59.31 -0.1 C62.47 0.14 64.68 0.79 67.52 2.15 C67.52 4.13 67.52 6.11 67.52 8.15 C68.51 8.15 69.5 8.15 70.52 8.15 C70.85 9.14 71.18 10.13 71.52 11.15 C72.51 11.48 73.5 11.81 74.52 12.15 C75.51 15.13 75.64 17.07 75.64 20.18 C75.65 21.74 75.65 21.74 75.65 23.34 C75.65 25.07 75.65 25.07 75.65 26.84 C75.65 28.06 75.65 29.28 75.65 30.54 C75.65 33.93 75.65 37.33 75.65 40.73 C75.65 44.39 75.65 48.05 75.65 51.71 C75.66 58.88 75.66 66.06 75.65 73.23 C75.65 79.06 75.65 84.89 75.65 90.72 C75.65 91.54 75.65 92.37 75.65 93.23 C75.65 94.91 75.65 96.59 75.65 98.28 C75.66 114.07 75.65 129.86 75.65 145.66 C75.64 159.22 75.64 172.78 75.65 186.34 C75.65 202.07 75.66 217.81 75.65 233.54 C75.65 235.22 75.65 236.9 75.65 238.58 C75.65 239.4 75.65 240.23 75.65 241.08 C75.65 246.9 75.65 252.72 75.65 258.55 C75.66 265.64 75.66 272.73 75.65 279.83 C75.65 283.45 75.65 287.07 75.65 290.69 C75.65 294.61 75.65 298.53 75.65 302.45 C75.65 303.61 75.65 304.76 75.65 305.95 C75.65 306.99 75.65 308.04 75.64 309.11 C75.64 310.02 75.64 310.93 75.64 311.86 C75.52 314.15 75.52 314.15 74.52 317.15 C73.86 317.15 73.2 317.15 72.52 317.15 C72.39 317.89 72.27 318.63 72.14 319.4 C71.56 321.97 70.89 323.89 69.52 326.15 C68.86 326.48 68.2 326.81 67.52 327.15 C67.19 327.81 66.86 328.47 66.52 329.15 C65.53 329.15 64.54 329.15 63.52 329.15 C63.19 330.14 62.86 331.13 62.52 332.15 C37.44 332.15 12.36 332.15 -13.48 332.15 C-12.48 328.15 -12.48 328.15 -10.11 325.46 C-4.27 318.7 -4.03 310.39 -4.08 301.84 C-4.08 300.79 -4.08 299.74 -4.07 298.66 C-4.07 296.46 -4.08 294.27 -4.09 292.07 C-4.11 288.69 -4.09 285.32 -4.07 281.94 C-4.07 279.8 -4.08 277.66 -4.08 275.52 C-4.08 274.51 -4.07 273.5 -4.06 272.46 C-4.07 271.53 -4.08 270.6 -4.09 269.64 C-4.1 268.4 -4.1 268.4 -4.1 267.15 C-4.23 266.49 -4.35 265.83 -4.48 265.15 C-5.47 264.49 -6.46 263.83 -7.48 263.15 C-9.15 263.8 -10.82 264.47 -12.48 265.15 C-15.08 265.34 -17.56 265.43 -20.15 265.42 C-20.92 265.42 -21.68 265.43 -22.47 265.44 C-25.03 265.45 -27.59 265.45 -30.15 265.45 C-31.99 265.46 -33.82 265.47 -35.66 265.48 C-40.65 265.5 -45.63 265.51 -50.62 265.51 C-53.74 265.52 -56.86 265.52 -59.98 265.53 C-70.86 265.55 -81.75 265.57 -92.63 265.57 C-102.77 265.57 -112.9 265.6 -123.04 265.65 C-131.75 265.68 -140.46 265.7 -149.17 265.7 C-154.36 265.7 -159.56 265.71 -164.76 265.74 C-169.65 265.76 -174.55 265.76 -179.44 265.75 C-181.23 265.75 -183.02 265.75 -184.81 265.77 C-195.63 265.86 -204.87 265.62 -213.04 257.65 C-215.73 252.98 -215.85 248.46 -215.48 243.15 C-213.77 237.91 -211.56 234.81 -207.48 231.15 C-206.49 230.16 -206.49 230.16 -205.48 229.15 C-201.75 227.75 -197.8 228 -193.87 228.01 C-193.1 228.01 -192.33 228.01 -191.54 228 C-188.96 228 -186.37 228 -183.79 228 C-181.94 228 -180.09 227.99 -178.24 227.99 C-173.2 227.98 -168.17 227.98 -163.14 227.98 C-158.94 227.98 -154.74 227.97 -150.54 227.97 C-140.63 227.96 -130.72 227.96 -120.81 227.96 C-110.59 227.96 -100.37 227.95 -90.15 227.93 C-81.38 227.92 -72.6 227.92 -63.82 227.92 C-58.58 227.92 -53.34 227.91 -48.1 227.9 C-43.17 227.89 -38.24 227.89 -33.31 227.9 C-31.5 227.9 -29.69 227.9 -27.89 227.89 C-25.41 227.89 -22.94 227.89 -20.47 227.9 C-19.4 227.89 -19.4 227.89 -18.31 227.88 C-13.65 227.91 -9.87 228.71 -5.48 230.15 C-4.26 229.15 -4.26 229.15 -4.36 227.16 C-4.36 226.3 -4.37 225.43 -4.37 224.53 C-4.37 223.55 -4.37 222.57 -4.37 221.56 C-4.37 220.49 -4.38 219.43 -4.38 218.33 C-4.39 217.24 -4.39 216.16 -4.39 215.04 C-4.39 211.55 -4.41 208.07 -4.42 204.58 C-4.42 202.23 -4.43 199.87 -4.43 197.51 C-4.44 191.72 -4.46 185.93 -4.48 180.15 C-5.6 180.63 -6.71 181.12 -7.86 181.62 C-15.46 184.13 -23.51 183.58 -31.42 183.57 C-33.24 183.57 -35.05 183.58 -36.87 183.59 C-41.79 183.61 -46.71 183.62 -51.62 183.61 C-55.74 183.61 -59.85 183.62 -63.96 183.63 C-73.67 183.65 -83.37 183.65 -93.08 183.65 C-103.08 183.64 -113.07 183.66 -123.07 183.7 C-131.67 183.73 -140.27 183.74 -148.87 183.74 C-154 183.74 -159.12 183.74 -164.25 183.77 C-169.08 183.79 -173.9 183.79 -178.72 183.77 C-180.49 183.76 -182.25 183.77 -184.02 183.78 C-195.25 183.87 -203.56 182.98 -212.54 175.65 C-216.01 171.17 -215.77 166.67 -215.48 161.15 C-214.34 156.04 -212.18 152.84 -208.48 149.15 C-202.86 145.96 -197.47 145 -191.11 145 C-190.36 145 -189.6 145 -188.82 145 C-186.28 144.99 -183.74 144.99 -181.19 144.98 C-179.37 144.98 -177.55 144.97 -175.73 144.97 C-170.78 144.96 -165.83 144.95 -160.88 144.95 C-157.79 144.94 -154.7 144.94 -151.6 144.93 C-141.92 144.92 -132.25 144.91 -122.57 144.91 C-111.4 144.9 -100.23 144.88 -89.06 144.86 C-80.42 144.83 -71.79 144.82 -63.15 144.82 C-58 144.82 -52.84 144.82 -47.68 144.8 C-42.83 144.78 -37.98 144.78 -33.12 144.79 C-31.34 144.79 -29.57 144.78 -27.79 144.77 C-25.35 144.76 -22.92 144.77 -20.48 144.78 C-19.44 144.77 -19.44 144.77 -18.37 144.75 C-13.12 144.81 -9.25 146.13 -4.48 148.15 C-4.43 130.93 -4.4 113.7 -4.38 96.48 C-4.37 88.49 -4.35 80.49 -4.33 72.5 C-4.31 65.53 -4.3 58.56 -4.29 51.59 C-4.29 47.9 -4.28 44.21 -4.27 40.52 C-4.25 36.39 -4.25 32.27 -4.25 28.15 C-4.24 26.32 -4.24 26.32 -4.23 24.46 C-4.25 18.57 -4.61 13.72 -6.48 8.15 C-6.48 6.83 -6.48 5.51 -6.48 4.15 C-7.47 3.65 -7.47 3.65 -8.48 3.15 C-8.48 2.49 -8.48 1.83 -8.48 1.15 C-5.63 -0.28 -3.19 0.01 0 0 Z M72.52 314.15 C73.52 316.15 73.52 316.15 73.52 316.15 Z " fill="#D6E9F9" transform="translate(286.481689453125,947.854736328125)"/>
<path d="M0 0 C6.05 8.47 6.54 15.76 6.5 25.92 C6.51 27.14 6.51 28.36 6.51 29.63 C6.52 33.01 6.52 36.4 6.51 39.78 C6.51 43.44 6.51 47.09 6.52 50.75 C6.53 57.91 6.53 65.06 6.52 72.22 C6.52 78.03 6.52 83.85 6.52 89.66 C6.52 90.49 6.52 91.32 6.52 92.17 C6.52 93.85 6.52 95.53 6.52 97.21 C6.53 112.98 6.52 128.74 6.51 144.5 C6.5 158.03 6.5 171.56 6.51 185.09 C6.52 200.8 6.53 216.51 6.52 232.22 C6.52 233.89 6.52 235.57 6.52 237.24 C6.52 238.48 6.52 238.48 6.52 239.74 C6.51 245.55 6.52 251.36 6.52 257.17 C6.53 264.24 6.53 271.32 6.52 278.4 C6.51 282.01 6.51 285.62 6.52 289.23 C6.52 293.14 6.51 297.05 6.5 300.96 C6.51 302.11 6.51 303.26 6.52 304.44 C6.51 306.01 6.51 306.01 6.5 307.61 C6.5 308.51 6.5 309.41 6.5 310.34 C6.23 312.9 5.54 314.54 4.25 316.75 C3.59 316.75 2.93 316.75 2.25 316.75 C2.48 317.29 2.7 317.82 2.94 318.38 C3.41 321.95 2.21 323.8 0.25 326.75 C-2.44 327.62 -2.44 327.62 -4.75 327.75 C-5.08 328.74 -5.41 329.73 -5.75 330.75 C-31.49 330.75 -57.23 330.75 -83.75 330.75 C-79.75 323.75 -79.75 323.75 -77.62 321.12 C-74.54 317.21 -73.5 313.7 -73.51 308.75 C-73.5 307.78 -73.5 306.81 -73.5 305.82 C-73.5 304.78 -73.51 303.75 -73.52 302.68 C-73.52 301.61 -73.52 300.54 -73.52 299.44 C-73.52 297.18 -73.53 294.92 -73.54 292.66 C-73.56 289.2 -73.56 285.74 -73.56 282.28 C-73.57 280.08 -73.58 277.88 -73.58 275.68 C-73.58 274.65 -73.58 273.61 -73.59 272.55 C-73.59 271.58 -73.6 270.62 -73.6 269.62 C-73.61 268.78 -73.61 267.93 -73.62 267.06 C-73.67 264.75 -73.67 264.75 -74.33 262.56 C-74.47 261.96 -74.61 261.37 -74.75 260.75 C-73.57 258.93 -73.57 258.93 -71.88 257.19 C-67.79 252.92 -67.36 249.23 -67.39 243.46 C-68.01 238.8 -70.39 234.11 -73.75 230.75 C-73.84 229.27 -73.86 227.79 -73.85 226.31 C-73.84 225.36 -73.84 224.42 -73.84 223.45 C-73.83 222.42 -73.82 221.39 -73.81 220.33 C-73.81 218.75 -73.81 218.75 -73.8 217.14 C-73.78 212.62 -73.76 208.1 -73.73 203.58 C-73.71 200.29 -73.7 197 -73.69 193.7 C-73.68 192.68 -73.67 191.66 -73.66 190.61 C-73.66 189.65 -73.66 188.69 -73.65 187.71 C-73.65 186.87 -73.64 186.03 -73.64 185.17 C-73.69 182.69 -73.69 182.69 -74.33 180.06 C-74.75 177.75 -74.75 177.75 -73.57 175.8 C-72.73 174.94 -72.73 174.94 -71.88 174.06 C-67.84 169.83 -67.41 167.24 -67.46 161.43 C-68.01 156.41 -70.2 152.3 -73.75 148.75 C-73.49 146.74 -73.14 144.74 -72.75 142.75 C-72.66 140.91 -72.6 139.06 -72.59 137.22 C-72.58 136.14 -72.57 135.07 -72.56 133.96 C-72.55 132.22 -72.55 132.22 -72.54 130.43 C-72.53 129.2 -72.52 127.96 -72.51 126.68 C-72.48 122.59 -72.46 118.5 -72.44 114.4 C-72.44 113.7 -72.43 113 -72.43 112.28 C-72.4 105.68 -72.37 99.08 -72.36 92.47 C-72.34 84.06 -72.29 75.65 -72.22 67.24 C-72.18 61.3 -72.15 55.37 -72.14 49.43 C-72.14 45.9 -72.13 42.37 -72.09 38.83 C-72.04 34.88 -72.05 30.93 -72.05 26.97 C-72.02 25.25 -72.02 25.25 -71.99 23.49 C-72.07 14.64 -74.28 5.22 -80.75 -1.25 C-71.48 -1.4 -62.22 -1.55 -52.95 -1.69 C-48.65 -1.76 -44.34 -1.83 -40.04 -1.9 C-35.88 -1.97 -31.73 -2.03 -27.57 -2.09 C-25.99 -2.12 -24.41 -2.14 -22.82 -2.17 C-20.6 -2.21 -18.38 -2.24 -16.15 -2.27 C-14.26 -2.3 -14.26 -2.3 -12.33 -2.33 C-2.96 -2.12 -2.96 -2.12 0 0 Z M2.25 312.75 C2.58 313.41 2.91 314.07 3.25 314.75 C3.58 314.09 3.91 313.43 4.25 312.75 C3.59 312.75 2.93 312.75 2.25 312.75 Z " fill="#4D90F7" transform="translate(814.75,949.25)"/>
<path d="M0 0 C0.66 0 1.32 0 2 0 C2.4 1.13 2.79 2.25 3.2 3.41 C5.03 8.28 7.36 12.8 9.81 17.38 C10.25 18.21 10.7 19.04 11.15 19.89 C15.68 30.28 15.68 30.28 23 38 C23 38.99 23 39.98 23 41 C-24.44 56.81 -77 42 -127 42 C-127 156.84 -127 271.68 -127 390 C-165 389 -165 389 -166 388 C-166.1 386.03 -166.12 384.07 -166.12 382.1 C-166.13 380.81 -166.13 379.52 -166.13 378.19 C-166.13 376.74 -166.12 375.28 -166.12 373.83 C-166.12 372.31 -166.12 370.78 -166.12 369.25 C-166.13 365.04 -166.12 360.82 -166.12 356.6 C-166.11 352.06 -166.11 347.52 -166.11 342.99 C-166.11 335.11 -166.11 327.24 -166.11 319.37 C-166.1 307.99 -166.1 296.61 -166.09 285.23 C-166.09 266.77 -166.08 248.31 -166.08 229.84 C-166.07 211.9 -166.06 193.97 -166.05 176.03 C-166.05 174.92 -166.05 173.82 -166.05 172.68 C-166.05 167.14 -166.05 161.59 -166.05 156.05 C-166.04 110.03 -166.02 64.02 -166 18 C-165.34 18 -164.68 18 -164 18 C-164 17.34 -164 16.68 -164 16 C-164.66 15.67 -165.32 15.34 -166 15 C-165.34 15 -164.68 15 -164 15 C-163.75 14.09 -163.5 13.18 -163.25 12.25 C-161.86 8.65 -161.11 7.26 -158 5 C-149.96 1.57 -141.88 1.56 -133.28 1.57 C-131.82 1.56 -130.36 1.55 -128.9 1.54 C-124.97 1.51 -121.03 1.5 -117.1 1.49 C-112.98 1.48 -108.86 1.46 -104.74 1.43 C-96.95 1.39 -89.15 1.36 -81.36 1.34 C-72.49 1.31 -63.61 1.27 -54.74 1.22 C-36.49 1.13 -18.25 1.06 0 1 C0 0.67 0 0.34 0 0 Z " fill="#625F67" transform="translate(326,555)"/>
<path d="M0 0 C0.66 0.33 1.32 0.66 2 1 C3.91 1.1 5.81 1.13 7.72 1.14 C8.94 1.14 10.16 1.15 11.41 1.15 C12.77 1.16 14.13 1.16 15.49 1.16 C16.91 1.16 18.33 1.17 19.76 1.17 C22.83 1.18 25.9 1.19 28.97 1.2 C33.84 1.21 38.7 1.23 43.56 1.25 C57.39 1.31 71.22 1.37 85.05 1.4 C92.69 1.42 100.32 1.45 107.96 1.49 C111.99 1.51 116.03 1.53 120.07 1.53 C123.88 1.53 127.68 1.55 131.48 1.57 C132.88 1.58 134.27 1.58 135.66 1.58 C144.65 1.56 152.37 1.91 160 7 C160 7.66 160 8.32 160 9 C160.99 9.33 161.98 9.66 163 10 C164.45 12.9 165 14.74 165 18 C165.66 18 166.32 18 167 18 C167 140.76 167 263.52 167 390 C154.46 390 141.92 390 129 390 C127.26 388.26 127.87 385.86 127.86 383.49 C127.86 382.29 127.85 381.09 127.85 379.85 C127.85 378.49 127.85 377.14 127.85 375.79 C127.84 374.37 127.84 372.94 127.84 371.52 C127.82 367.59 127.82 363.66 127.81 359.73 C127.81 355.5 127.8 351.27 127.79 347.04 C127.77 339.7 127.75 332.37 127.74 325.03 C127.72 314.42 127.7 303.82 127.67 293.21 C127.63 276 127.59 258.79 127.55 241.58 C127.55 240.03 127.55 240.03 127.55 238.46 C127.53 230.09 127.51 221.72 127.49 213.36 C127.48 206.05 127.46 198.73 127.45 191.42 C127.44 189.88 127.44 189.88 127.44 188.3 C127.41 171.16 127.37 154.01 127.32 136.87 C127.3 126.28 127.27 115.7 127.26 105.11 C127.24 97.86 127.23 90.61 127.21 83.37 C127.2 79.18 127.19 74.99 127.18 70.8 C127.18 66.97 127.17 63.14 127.16 59.32 C127.15 57.93 127.15 56.53 127.15 55.14 C127.15 53.27 127.14 51.39 127.14 49.51 C127.13 47.94 127.13 47.94 127.13 46.34 C127.26 44.04 127.26 44.04 126 43 C124.1 42.89 122.2 42.85 120.3 42.84 C119.06 42.83 117.82 42.82 116.55 42.81 C115.16 42.81 113.78 42.8 112.39 42.79 C110.94 42.79 109.5 42.78 108.05 42.76 C104.1 42.74 100.16 42.72 96.22 42.7 C92.1 42.67 87.98 42.65 83.86 42.62 C76.06 42.57 68.26 42.53 60.46 42.48 C51.58 42.43 42.7 42.38 33.82 42.32 C15.54 42.21 -2.73 42.1 -21 42 C-20.43 38.32 -19.98 35.43 -18 32.26 C-17.38 31.26 -17.38 31.26 -16.76 30.24 C-16.11 29.19 -16.11 29.19 -15.44 28.12 C-10.47 19.97 -6.14 11.6 -2 3 C-1.34 3 -0.68 3 0 3 C0 2.01 0 1.02 0 0 Z " fill="#615E66" transform="translate(952,555)"/>
<path d="M0 0 C3.22 2.85 5.46 6.1 7.74 9.71 C8.61 11.07 9.49 12.42 10.37 13.77 C10.81 14.45 11.24 15.13 11.7 15.83 C13.66 18.88 15.66 21.89 17.68 24.9 C18.07 25.5 18.47 26.09 18.87 26.7 C23.43 33.54 28.07 40.31 32.72 47.08 C35.89 51.7 38.96 56.32 41.76 61.17 C43.24 63.18 44.98 64.38 46.99 65.84 C46.98 64.87 46.98 64.87 46.97 63.88 C46.9 57.13 46.86 50.38 46.82 43.64 C46.81 41.12 46.79 38.6 46.76 36.09 C46.73 32.46 46.71 28.84 46.7 25.21 C46.68 24.1 46.66 22.98 46.65 21.83 C46.65 14.07 47.19 7.98 52.55 1.96 C53.36 1.26 54.16 0.56 54.99 -0.16 C55.65 -0.82 56.31 -1.48 56.99 -2.16 C62.76 -4.13 69.48 -3.82 75.3 -2.29 C80.1 1.51 83.07 7.08 84.99 12.84 C85.08 14.46 85.12 16.09 85.13 17.71 C85.13 18.71 85.14 19.72 85.15 20.75 C85.15 22.4 85.15 22.4 85.15 24.08 C85.16 25.82 85.16 25.82 85.16 27.6 C85.18 31.44 85.19 35.29 85.19 39.14 C85.2 41.13 85.2 43.13 85.2 45.12 C85.22 50.68 85.22 56.24 85.23 61.8 C85.23 68.98 85.25 76.17 85.28 83.35 C85.3 88.91 85.31 94.46 85.31 100.02 C85.31 103.34 85.32 106.65 85.34 109.97 C85.35 113.67 85.35 117.37 85.34 121.08 C85.35 122.17 85.36 123.26 85.37 124.39 C85.32 133.36 83.54 139.29 76.99 145.84 C72.19 148.51 68.45 149.43 62.99 148.84 C52.69 145.53 47.4 138.12 41.68 129.4 C41.02 128.42 40.37 127.45 39.69 126.44 C37.78 123.58 35.88 120.71 33.99 117.84 C33.04 116.42 32.09 115.01 31.14 113.59 C29.15 110.61 27.16 107.62 25.18 104.63 C23.04 101.4 20.89 98.18 18.74 94.96 C17.96 93.8 17.19 92.64 16.41 91.47 C15.6 90.26 14.8 89.05 13.99 87.84 C10.99 83.34 10.99 83.34 7.99 78.84 C7.98 79.51 7.98 80.19 7.97 80.88 C7.91 87.91 7.82 94.93 7.73 101.95 C7.69 104.57 7.66 107.19 7.64 109.81 C7.61 113.58 7.56 117.35 7.5 121.12 C7.49 122.88 7.49 122.88 7.48 124.66 C7.35 131.85 6.98 137.41 2.09 143.02 C1.08 143.86 1.08 143.86 0.05 144.71 C-0.62 145.29 -1.29 145.86 -1.98 146.46 C-6.03 149.21 -10.21 149.3 -15.01 148.84 C-20.7 146.73 -25.97 144.29 -29.01 138.84 C-30.87 132.73 -31.29 127.23 -31.25 120.87 C-31.26 119.9 -31.26 118.94 -31.26 117.94 C-31.26 114.77 -31.25 111.59 -31.24 108.41 C-31.24 106.18 -31.24 103.95 -31.24 101.72 C-31.24 97.05 -31.23 92.38 -31.22 87.7 C-31.2 81.76 -31.2 75.82 -31.2 69.88 C-31.2 65.27 -31.19 60.66 -31.18 56.05 C-31.18 53.87 -31.18 51.68 -31.18 49.49 C-31.17 39.07 -31.11 28.64 -30.69 18.22 C-30.67 17.46 -30.65 16.69 -30.62 15.91 C-30.35 10.39 -29.07 6.22 -25.43 2.01 C-17.58 -4.66 -8.7 -6.24 0 0 Z " fill="#615E66" transform="translate(486.01171875,344.16015625)"/>
<path d="M0 0 C0.91 -0 1.83 -0 2.77 -0.01 C4.69 -0.01 6.61 -0 8.53 0 C11.43 0.02 14.33 0 17.24 -0.01 C35.72 -0.02 52.39 1.49 66.61 14.54 C69.34 17.48 71.56 20.58 73.7 23.95 C74.09 24.57 74.48 25.18 74.88 25.81 C82.98 38.82 85.22 52.91 82.45 67.98 C78.22 82.75 69.56 94.05 56.45 101.87 C41.16 110.12 26.05 109.67 9.14 109.27 C9.16 110.13 9.19 111 9.22 111.89 C9.3 115.14 9.36 118.39 9.41 121.64 C9.44 123.04 9.47 124.44 9.51 125.84 C9.97 140.97 9.97 140.97 4.14 147.27 C1.23 150.22 -1.59 152.88 -5.86 153.27 C-6.89 153.39 -7.93 153.51 -8.99 153.64 C-15.48 153.01 -20.92 150.3 -25.43 145.58 C-27.57 142.13 -27.99 140.3 -28.01 136.25 C-28.02 135.19 -28.02 134.13 -28.03 133.03 C-28.04 131.28 -28.04 131.28 -28.04 129.49 C-28.05 128.26 -28.05 127.04 -28.06 125.77 C-28.08 121.69 -28.09 117.61 -28.1 113.54 C-28.11 112.13 -28.11 110.73 -28.11 109.32 C-28.13 102.72 -28.15 96.12 -28.16 89.52 C-28.17 81.9 -28.19 74.29 -28.23 66.67 C-28.26 60.79 -28.28 54.9 -28.28 49.01 C-28.28 45.49 -28.29 41.98 -28.32 38.46 C-28.34 34.54 -28.34 30.61 -28.33 26.69 C-28.35 25.53 -28.36 24.37 -28.37 23.17 C-28.32 14.92 -26.74 10.96 -21.68 4.45 C-15.56 -0.3 -7.47 -0.04 0 0 Z " fill="#605E66" transform="translate(739.86328125,339.734375)"/>
<path d="M0 0 C0.75 -0 1.51 -0.01 2.29 -0.01 C4.81 -0.02 7.33 -0.02 9.85 -0.01 C11.66 -0.02 13.47 -0.02 15.28 -0.03 C20.19 -0.04 25.1 -0.04 30.01 -0.04 C34.11 -0.04 38.22 -0.04 42.32 -0.05 C52 -0.06 61.68 -0.06 71.36 -0.05 C81.34 -0.05 91.32 -0.06 101.3 -0.08 C109.88 -0.1 118.45 -0.11 127.03 -0.1 C132.15 -0.1 137.27 -0.1 142.39 -0.12 C147.2 -0.13 152.01 -0.13 156.83 -0.12 C158.59 -0.11 160.36 -0.12 162.12 -0.12 C164.54 -0.13 166.95 -0.13 169.36 -0.11 C170.4 -0.12 170.4 -0.12 171.46 -0.14 C177.41 -0.07 182.75 1.34 187.56 4.95 C191.62 10.32 194.05 15.24 193.69 22.09 C192.54 28.6 188.51 32.55 183.31 36.26 C179.12 38.38 175.27 38.55 170.66 38.53 C169.52 38.53 169.52 38.53 168.35 38.54 C165.8 38.55 163.25 38.55 160.7 38.55 C158.87 38.56 157.04 38.56 155.21 38.57 C150.24 38.59 145.27 38.59 140.3 38.6 C137.2 38.6 134.09 38.6 130.99 38.61 C120.15 38.62 109.31 38.63 98.48 38.63 C88.38 38.63 78.28 38.65 68.19 38.68 C59.51 38.71 50.84 38.72 42.17 38.72 C36.99 38.72 31.81 38.72 26.63 38.74 C21.76 38.76 16.89 38.76 12.02 38.75 C10.23 38.75 8.45 38.75 6.66 38.76 C4.22 38.78 1.78 38.77 -0.66 38.76 C-1.71 38.77 -1.71 38.77 -2.79 38.79 C-9.42 38.69 -14.04 35.91 -19.5 32.51 C-22.93 28.99 -24.65 25.09 -24.72 20.14 C-23.92 12.43 -21.61 8.83 -15.96 3.81 C-10.97 0.4 -5.89 -0.03 0 0 Z " fill="#615E66" transform="translate(1014.6910095214844,1092.7393035888672)"/>
<path d="M0 0 C0.76 -0 1.51 -0.01 2.29 -0.01 C4.83 -0.02 7.38 -0.03 9.92 -0.03 C11.74 -0.04 13.56 -0.04 15.38 -0.05 C21.36 -0.07 27.35 -0.08 33.33 -0.09 C35.39 -0.1 37.45 -0.1 39.51 -0.1 C49.19 -0.12 58.87 -0.14 68.55 -0.15 C79.72 -0.15 90.89 -0.18 102.06 -0.22 C110.69 -0.25 119.33 -0.27 127.96 -0.27 C133.12 -0.27 138.27 -0.28 143.43 -0.31 C148.28 -0.33 153.14 -0.33 157.99 -0.32 C159.77 -0.32 161.55 -0.33 163.33 -0.34 C165.76 -0.36 168.19 -0.35 170.63 -0.34 C171.33 -0.35 172.03 -0.36 172.74 -0.37 C178.78 -0.3 184.16 1.71 188.47 5.96 C188.83 6.54 189.2 7.12 189.57 7.71 C190.14 8.58 190.14 8.58 190.72 9.46 C193.52 14.64 193.4 20.44 192.63 26.15 C190.27 31.14 186.71 34.88 181.63 37.15 C177.86 38.4 174.08 38.3 170.16 38.3 C169.02 38.31 169.02 38.31 167.87 38.31 C165.33 38.33 162.8 38.33 160.26 38.34 C158.45 38.35 156.63 38.36 154.81 38.36 C148.84 38.39 142.87 38.41 136.91 38.42 C134.85 38.43 132.79 38.43 130.74 38.44 C122.18 38.46 113.62 38.48 105.07 38.49 C92.81 38.5 80.56 38.54 68.31 38.59 C59.69 38.63 51.07 38.65 42.45 38.66 C37.3 38.66 32.16 38.67 27.01 38.71 C22.17 38.74 17.32 38.74 12.48 38.73 C10.71 38.73 8.93 38.74 7.16 38.76 C-4.1 38.86 -12.42 38 -21.43 30.65 C-24.9 26.17 -24.66 21.67 -24.37 16.15 C-23.22 11.04 -21.06 7.84 -17.37 4.15 C-11.75 0.96 -6.35 -0 0 0 Z " fill="#615F67" transform="translate(95.36820983886719,1092.8528289794922)"/>
<path d="M0 0 C1.14 -0.01 1.14 -0.01 2.3 -0.01 C4.81 -0.02 7.33 -0.01 9.84 0 C11.65 -0 13.47 -0 15.28 -0.01 C20.19 -0.02 25.09 -0.01 30 0 C35.14 0.02 40.28 0.01 45.42 0.01 C54.06 0.01 62.69 0.02 71.32 0.04 C81.29 0.06 91.27 0.06 101.24 0.06 C110.85 0.05 120.45 0.06 130.06 0.07 C134.14 0.07 138.22 0.07 142.3 0.07 C147.11 0.07 151.92 0.08 156.73 0.09 C158.49 0.1 160.26 0.1 162.02 0.1 C164.43 0.09 166.84 0.1 169.25 0.11 C169.94 0.11 170.64 0.11 171.35 0.1 C176.72 0.15 181.96 0.64 186.21 4.14 C191.34 10.43 193.58 14.71 193.37 22.95 C192.61 28.89 188.19 32.42 183.94 36.18 C179.64 38.92 174.46 38.53 169.52 38.53 C168.77 38.54 168.02 38.55 167.24 38.55 C164.73 38.57 162.22 38.57 159.7 38.58 C157.9 38.59 156.09 38.6 154.29 38.61 C148.37 38.64 142.45 38.66 136.53 38.68 C135.01 38.69 135.01 38.69 133.47 38.69 C123.95 38.72 114.43 38.75 104.91 38.77 C92.75 38.79 80.59 38.83 68.44 38.9 C59.88 38.95 51.32 38.97 42.76 38.98 C37.65 38.98 32.55 39 27.44 39.04 C22.63 39.08 17.82 39.08 13.01 39.07 C11.25 39.07 9.5 39.08 7.74 39.1 C-2.7 39.22 -11.07 38.67 -19.94 32.37 C-23.64 28.58 -24.17 25.04 -24.38 19.81 C-24.13 13.83 -22.53 10.33 -18.75 5.69 C-13.16 1.09 -7.16 -0.08 0 0 Z " fill="#615E66" transform="translate(554.9382476806641,1092.6257781982422)"/>
<path d="M0 0 C0.78 -0 1.55 -0.01 2.35 -0.01 C4.95 -0.02 7.54 -0.02 10.14 -0.01 C12 -0.02 13.87 -0.02 15.73 -0.03 C20.79 -0.04 25.84 -0.04 30.9 -0.04 C35.12 -0.04 39.35 -0.04 43.57 -0.05 C53.53 -0.06 63.49 -0.06 73.45 -0.05 C83.73 -0.05 94 -0.06 104.28 -0.08 C113.1 -0.1 121.93 -0.11 130.75 -0.1 C136.02 -0.1 141.29 -0.1 146.56 -0.12 C151.51 -0.13 156.47 -0.13 161.42 -0.12 C163.24 -0.11 165.06 -0.12 166.88 -0.12 C169.36 -0.13 171.84 -0.13 174.32 -0.11 C175.4 -0.12 175.4 -0.12 176.5 -0.14 C181.14 -0.09 184.28 0.84 188.23 3.26 C192.69 7.98 195.38 12.66 195.66 19.2 C195.49 24.34 194.28 27.14 191.23 31.26 C185.86 36.23 181.85 37.56 174.62 37.52 C173.85 37.53 173.08 37.53 172.28 37.53 C169.7 37.54 167.12 37.54 164.53 37.54 C162.68 37.54 160.83 37.54 158.98 37.55 C153.95 37.56 148.92 37.56 143.89 37.56 C139.69 37.56 135.49 37.57 131.29 37.57 C121.38 37.58 111.47 37.58 101.56 37.58 C91.34 37.57 81.12 37.58 70.9 37.6 C62.12 37.62 53.34 37.63 44.57 37.62 C39.33 37.62 34.09 37.63 28.85 37.64 C23.92 37.65 18.98 37.65 14.05 37.64 C12.25 37.63 10.44 37.64 8.63 37.65 C6.16 37.66 3.69 37.65 1.22 37.63 C0.15 37.65 0.15 37.65 -0.94 37.66 C-8.7 37.57 -14.31 34.6 -19.77 29.26 C-22.59 24.79 -22.4 19.37 -21.77 14.26 C-20.09 8.94 -17.54 5.28 -12.77 2.26 C-8.53 0.14 -4.65 -0.02 0 0 Z " fill="#615E66" transform="translate(552.7740325927734,1175.7393035888672)"/>
<path d="M0 0 C0.77 -0 1.54 -0.01 2.33 -0.01 C4.92 -0.02 7.5 -0.02 10.08 -0.02 C11.93 -0.03 13.79 -0.03 15.64 -0.04 C20.67 -0.05 25.7 -0.06 30.73 -0.06 C33.87 -0.06 37.02 -0.07 40.16 -0.07 C49.99 -0.08 59.83 -0.09 69.66 -0.1 C81.02 -0.1 92.37 -0.12 103.72 -0.15 C112.5 -0.17 121.27 -0.18 130.05 -0.18 C135.29 -0.18 140.53 -0.19 145.77 -0.21 C150.7 -0.22 155.63 -0.23 160.56 -0.22 C162.37 -0.22 164.18 -0.22 165.99 -0.23 C168.46 -0.24 170.93 -0.24 173.4 -0.23 C174.11 -0.24 174.83 -0.24 175.56 -0.25 C180.61 -0.2 183.98 0.86 188.39 3.14 C190.64 5.52 190.64 5.52 192.39 8.14 C192.91 8.9 193.44 9.65 193.97 10.43 C196.44 15.14 196.02 19.97 195.39 25.14 C193.1 29.98 188.87 34.87 183.68 36.77 C180.4 37.3 177.15 37.29 173.84 37.29 C172.69 37.3 172.69 37.3 171.52 37.31 C168.96 37.32 166.4 37.33 163.84 37.33 C162 37.34 160.16 37.35 158.33 37.36 C152.29 37.38 146.26 37.4 140.23 37.41 C138.15 37.42 136.07 37.42 133.99 37.43 C125.34 37.45 116.69 37.47 108.04 37.48 C95.66 37.5 83.27 37.53 70.89 37.59 C62.17 37.63 53.46 37.65 44.75 37.65 C39.55 37.66 34.34 37.67 29.14 37.7 C24.25 37.73 19.35 37.74 14.45 37.72 C12.66 37.72 10.87 37.73 9.08 37.75 C-1.75 37.85 -10.99 37.62 -19.17 29.64 C-21.85 24.98 -21.98 20.46 -21.61 15.14 C-19.89 9.91 -17.69 6.8 -13.61 3.14 C-12.95 2.48 -12.29 1.82 -11.61 1.14 C-7.88 -0.25 -3.93 -0 0 0 Z " fill="#605D65" transform="translate(92.60908508300781,1175.8595581054688)"/>
<path d="M0 0 C0.77 -0 1.54 -0.01 2.33 -0.01 C4.91 -0.03 7.49 -0.02 10.07 -0.02 C11.92 -0.03 13.77 -0.04 15.62 -0.04 C20.64 -0.06 25.66 -0.07 30.69 -0.07 C33.82 -0.07 36.96 -0.07 40.1 -0.08 C51.06 -0.1 62.01 -0.1 72.96 -0.1 C83.17 -0.1 93.38 -0.12 103.58 -0.15 C112.35 -0.18 121.11 -0.19 129.88 -0.19 C135.11 -0.19 140.35 -0.2 145.58 -0.22 C150.51 -0.24 155.43 -0.24 160.35 -0.22 C162.16 -0.22 163.96 -0.22 165.77 -0.24 C168.24 -0.25 170.7 -0.24 173.17 -0.23 C173.88 -0.24 174.59 -0.25 175.32 -0.26 C180.7 -0.18 184.84 1.34 189.28 4.27 C192.84 8.55 195.57 13.88 195.9 19.52 C194.7 26.71 191.38 30.59 185.96 35.1 C182.17 37.72 178.22 37.42 173.82 37.43 C173.05 37.43 172.28 37.44 171.49 37.44 C168.92 37.46 166.34 37.47 163.76 37.48 C161.92 37.49 160.07 37.5 158.23 37.51 C152.16 37.54 146.09 37.56 140.03 37.58 C138.99 37.58 137.96 37.58 136.9 37.59 C127.16 37.62 117.42 37.64 107.67 37.66 C95.22 37.68 82.77 37.72 70.32 37.79 C61.56 37.84 52.8 37.87 44.04 37.87 C38.81 37.88 33.58 37.89 28.35 37.93 C23.43 37.97 18.5 37.98 13.58 37.96 C11.78 37.96 9.97 37.97 8.17 38 C-1.85 38.11 -10.63 38.11 -18.72 31.27 C-21.9 26.9 -23.05 22.98 -22.66 17.58 C-21.4 10.5 -18.58 6.48 -12.72 2.27 C-8.52 0.13 -4.63 -0.02 0 0 Z " fill="#615E66" transform="translate(1012.7226104736328,1175.7325744628906)"/>
<path d="M0 0 C6.33 6.51 7.45 13.11 7.43 21.79 C7.45 23.23 7.45 23.23 7.46 24.69 C7.49 27.83 7.5 30.98 7.51 34.12 C7.53 36.31 7.55 38.5 7.57 40.68 C7.61 46.42 7.64 52.17 7.67 57.91 C7.7 63.78 7.75 69.64 7.79 75.51 C7.88 87 7.94 98.5 8 110 C8.58 110.01 9.17 110.03 9.77 110.04 C12.47 110.12 15.17 110.22 17.88 110.31 C18.79 110.34 19.71 110.36 20.66 110.38 C27.27 110.64 35.21 111.02 40.62 115.27 C44.6 119.74 47.11 125.08 47.38 131.06 C46.74 137.72 44.08 141.73 39 146 C33.1 149.17 28.12 149.44 21.5 149.4 C20.01 149.4 20.01 149.4 18.49 149.41 C16.39 149.41 14.3 149.4 12.2 149.39 C9.01 149.38 5.82 149.39 2.62 149.41 C0.58 149.41 -1.46 149.4 -3.5 149.4 C-4.45 149.4 -5.4 149.41 -6.37 149.42 C-12.04 149.36 -15.95 148.6 -21 146 C-21.89 145.59 -22.77 145.18 -23.69 144.75 C-27.5 141.86 -29.51 138.21 -30.54 133.56 C-31.17 128.7 -31.16 123.91 -31.16 119.01 C-31.17 117.92 -31.17 116.82 -31.18 115.69 C-31.19 112.07 -31.2 108.45 -31.2 104.83 C-31.21 102.3 -31.21 99.78 -31.22 97.26 C-31.23 92.64 -31.24 88.03 -31.24 83.42 C-31.24 76.65 -31.26 69.88 -31.29 63.11 C-31.31 57.23 -31.32 51.35 -31.32 45.46 C-31.33 42.97 -31.33 40.48 -31.35 37.99 C-31.36 34.49 -31.36 31 -31.36 27.5 C-31.37 26.48 -31.37 25.46 -31.38 24.41 C-31.33 15.42 -30.03 7.03 -23.59 0.34 C-17.28 -4.97 -6.55 -4.52 0 0 Z " fill="#615E66" transform="translate(633,344)"/>
<path d="M0 0 C0.94 -0 1.88 -0.01 2.85 -0.01 C3.88 -0.01 4.9 -0.01 5.96 -0.01 C7.58 -0.02 7.58 -0.02 9.24 -0.02 C12.83 -0.03 16.43 -0.03 20.02 -0.03 C22.51 -0.04 25 -0.04 27.5 -0.04 C32.72 -0.05 37.95 -0.05 43.18 -0.05 C48.55 -0.05 53.92 -0.06 59.29 -0.07 C65.77 -0.09 72.26 -0.1 78.74 -0.09 C81.21 -0.1 83.68 -0.1 86.15 -0.11 C89.61 -0.12 93.06 -0.12 96.52 -0.11 C97.54 -0.11 98.56 -0.12 99.62 -0.13 C100.56 -0.12 101.5 -0.12 102.47 -0.11 C103.7 -0.11 103.7 -0.11 104.95 -0.12 C109.46 0.36 112.56 1.9 115.43 5.38 C119.36 10.3 121.93 14.51 121.65 21.05 C120.81 26.04 118.53 29.9 114.99 33.45 C108.08 37.78 102.84 38.57 94.81 38.52 C93.78 38.53 92.75 38.53 91.68 38.54 C88.29 38.55 84.89 38.54 81.49 38.53 C79.12 38.53 76.75 38.54 74.38 38.54 C69.42 38.55 64.46 38.54 59.5 38.52 C53.15 38.51 46.8 38.52 40.45 38.54 C35.56 38.55 30.66 38.54 25.77 38.54 C23.43 38.53 21.09 38.54 18.75 38.54 C15.47 38.55 12.2 38.54 8.92 38.52 C7.96 38.53 7 38.53 6.01 38.54 C-3.01 38.46 -9.41 36.13 -16.07 29.89 C-19.06 26.67 -19.58 24.17 -20.07 19.88 C-19.41 13.29 -17.18 8.1 -12.2 3.63 C-8.37 0.5 -4.87 0.01 0 0 Z " fill="#DA4FB0" transform="translate(1009.6993255615234,1010.8662872314453)"/>
<path d="M0 0 C0.93 -0.01 1.86 -0.01 2.82 -0.02 C3.83 -0.02 4.84 -0.02 5.88 -0.02 C6.96 -0.03 8.03 -0.03 9.13 -0.04 C12.68 -0.05 16.23 -0.06 19.78 -0.06 C22.24 -0.07 24.71 -0.07 27.18 -0.08 C32.35 -0.09 37.52 -0.1 42.69 -0.1 C49.32 -0.11 55.94 -0.13 62.57 -0.16 C67.66 -0.18 72.76 -0.18 77.85 -0.18 C80.29 -0.19 82.74 -0.19 85.18 -0.21 C88.6 -0.22 92.01 -0.22 95.43 -0.22 C96.44 -0.23 97.44 -0.23 98.48 -0.24 C104.22 -0.21 108.29 0.37 113.35 3.14 C115.6 5.45 115.6 5.45 117.35 8.14 C117.93 9.01 118.51 9.87 119.1 10.77 C121.31 16.72 121.49 22.63 118.85 28.45 C114.13 33.53 109.36 37.83 102.21 38.27 C101.44 38.28 100.67 38.28 99.87 38.29 C98.98 38.29 98.08 38.3 97.16 38.31 C96.19 38.31 95.22 38.31 94.22 38.32 C93.19 38.32 92.16 38.33 91.1 38.34 C87.69 38.36 84.28 38.37 80.87 38.38 C79.71 38.38 78.54 38.39 77.34 38.39 C71.17 38.41 65 38.43 58.83 38.44 C52.47 38.45 46.1 38.48 39.74 38.52 C34.84 38.55 29.93 38.56 25.03 38.56 C22.69 38.56 20.34 38.58 18 38.59 C14.71 38.62 11.42 38.62 8.13 38.61 C7.17 38.62 6.21 38.64 5.22 38.65 C-2.58 38.59 -8.82 36.46 -15.09 31.77 C-18.98 27.77 -19.53 24.68 -19.96 19.2 C-19.77 14.03 -18.42 10.02 -14.81 6.18 C-9.9 1.7 -6.68 0.02 0 0 Z " fill="#DA4FB0" transform="translate(90.64790344238281,1010.8595581054688)"/>
<path d="M0 0 C1.1 -0.01 2.21 -0.01 3.34 -0.02 C6.98 -0.03 10.62 -0.02 14.26 -0.01 C16.79 -0.01 19.33 -0.02 21.86 -0.02 C27.17 -0.02 32.47 -0.02 37.78 -0 C43.9 0.01 50.03 0.01 56.15 -0.01 C62.06 -0.02 67.96 -0.02 73.86 -0.01 C76.37 -0.01 78.88 -0.01 81.39 -0.02 C84.89 -0.03 88.39 -0.02 91.9 0 C92.93 -0.01 93.97 -0.01 95.03 -0.02 C101.35 0.04 105.98 0.65 110.81 5.11 C111.29 5.69 111.77 6.28 112.26 6.89 C112.75 7.48 113.24 8.06 113.75 8.67 C116.97 13.28 116.48 19.02 115.95 24.39 C114.21 30.02 110.03 33.69 104.95 36.39 C102.04 37.27 99.42 37.52 96.38 37.53 C95.02 37.54 95.02 37.54 93.62 37.55 C92.63 37.55 91.64 37.55 90.62 37.55 C89.57 37.55 88.51 37.56 87.43 37.56 C83.95 37.58 80.47 37.59 77 37.59 C74.58 37.6 72.16 37.6 69.74 37.61 C64.67 37.62 59.59 37.62 54.52 37.63 C48.02 37.63 41.53 37.66 35.03 37.69 C30.04 37.71 25.04 37.71 20.04 37.71 C17.65 37.71 15.25 37.72 12.86 37.74 C9.51 37.75 6.15 37.75 2.8 37.74 C1.82 37.75 0.83 37.76 -0.18 37.77 C-6.79 37.73 -12.72 37.05 -18.07 32.77 C-22.25 27.52 -24.31 23.37 -24.05 16.51 C-23.35 11.05 -21.12 7.09 -17.05 3.39 C-11.49 -0.24 -6.41 -0.04 0 0 Z " fill="#DA4FB0" transform="translate(555.05078125,1011.61181640625)"/>
<path d="M0 0 C11.33 2.72 21.82 1.65 33.19 -0.44 C33.68 0.55 33.68 0.55 34.19 1.56 C33.53 1.89 32.87 2.22 32.19 2.56 C32.16 16.74 32.15 30.92 32.14 45.09 C32.13 51.68 32.12 58.26 32.11 64.84 C32.1 71.19 32.1 77.54 32.09 83.88 C32.09 86.31 32.09 88.74 32.08 91.16 C32.07 94.55 32.07 97.94 32.07 101.33 C32.07 102.85 32.07 102.85 32.06 104.4 C32.06 105.32 32.07 106.24 32.07 107.18 C32.07 108.39 32.07 108.39 32.06 109.61 C32.07 111.64 32.07 111.64 33.19 113.56 C27.79 113.59 22.4 113.61 17.01 113.62 C15.17 113.62 13.33 113.63 11.5 113.64 C8.86 113.65 6.23 113.66 3.6 113.66 C2.36 113.67 2.36 113.67 1.09 113.68 C-0.87 113.68 -2.84 113.62 -4.81 113.56 C-5.81 112.56 -5.81 112.56 -5.94 110.69 C-5.93 109.87 -5.93 109.04 -5.93 108.19 C-5.93 106.77 -5.93 106.77 -5.94 105.33 C-5.93 104.29 -5.93 103.24 -5.93 102.17 C-5.93 101.08 -5.93 99.98 -5.93 98.86 C-5.93 95.23 -5.92 91.6 -5.91 87.96 C-5.91 85.46 -5.91 82.95 -5.91 80.44 C-5.9 74.49 -5.89 68.55 -5.88 62.61 C-5.87 55.18 -5.87 47.75 -5.86 40.33 C-5.85 27.07 -5.83 13.82 -5.81 0.56 C-6.47 0.23 -7.13 -0.1 -7.81 -0.44 C-4.88 -1.9 -3.13 -0.85 0 0 Z " fill="#625F67" transform="translate(625.8125,831.4375)"/>
<path d="M0 0 C4.23 -0.09 8.46 -0.14 12.69 -0.19 C13.89 -0.21 15.08 -0.24 16.32 -0.26 C17.48 -0.27 18.63 -0.28 19.82 -0.29 C20.89 -0.31 21.95 -0.32 23.05 -0.34 C27.06 0.12 29.65 1.71 32.55 4.47 C36.24 9.36 37.18 13.9 37 20 C35.99 24.55 33.37 26.88 30 30 C29.34 30.66 28.68 31.32 28 32 C24.85 33.09 21.89 33.12 18.58 33.1 C17.55 33.09 16.53 33.09 15.47 33.09 C14.41 33.08 13.35 33.07 12.25 33.06 C11.17 33.06 10.09 33.05 8.98 33.05 C6.32 33.04 3.66 33.02 1 33 C-0.49 30.03 -0.11 27.34 -0.1 24.02 C-0.1 23 -0.1 23 -0.09 21.95 C-0.09 19.76 -0.08 17.57 -0.06 15.38 C-0.06 13.89 -0.05 12.41 -0.05 10.92 C-0.04 7.28 -0.02 3.64 0 0 Z " fill="#E6F2FC" transform="translate(749,378)"/>
<path d="M0 0 C0.66 0 1.32 0 2 0 C2.99 2.98 3.13 4.92 3.13 8.03 C3.13 9.08 3.13 10.12 3.13 11.2 C3.13 12.35 3.13 13.5 3.13 14.69 C3.13 16.52 3.13 16.52 3.13 18.39 C3.14 21.79 3.13 25.19 3.13 28.58 C3.13 32.24 3.13 35.9 3.13 39.56 C3.14 46.74 3.14 53.91 3.14 61.08 C3.13 66.91 3.13 72.74 3.13 78.57 C3.13 79.4 3.13 80.23 3.13 81.08 C3.13 82.76 3.13 84.45 3.14 86.13 C3.14 101.92 3.13 117.72 3.13 133.51 C3.12 147.07 3.13 160.63 3.13 174.19 C3.14 189.93 3.14 205.66 3.13 221.4 C3.13 223.08 3.13 224.75 3.13 226.43 C3.13 227.25 3.13 228.08 3.13 228.93 C3.13 234.75 3.13 240.58 3.14 246.4 C3.14 253.49 3.14 260.59 3.13 267.68 C3.13 271.3 3.13 274.93 3.13 278.55 C3.14 282.47 3.13 286.39 3.13 290.31 C3.13 291.46 3.13 292.61 3.13 293.8 C3.13 294.85 3.13 295.89 3.13 296.97 C3.13 297.88 3.13 298.78 3.13 299.71 C3 302 3 302 2 305 C1.34 304.67 0.68 304.34 0 304 C0 203.68 0 103.36 0 0 Z " fill="#E7F3FD" transform="translate(359,960)"/>
<path d="M0 0 C18.93 -0.05 37.86 -0.08 56.8 -0.1 C65.59 -0.11 74.38 -0.13 83.17 -0.15 C90.83 -0.17 98.49 -0.18 106.16 -0.19 C110.21 -0.19 114.27 -0.2 118.33 -0.21 C122.15 -0.23 125.97 -0.23 129.79 -0.23 C131.19 -0.23 132.59 -0.23 133.99 -0.24 C135.9 -0.25 137.82 -0.24 139.74 -0.24 C140.81 -0.24 141.88 -0.24 142.98 -0.25 C146.25 0.02 148.94 0.84 152 2 C152 2.33 152 2.66 152 3 C101.51 3 51.02 3 -1 3 C-0.67 2.01 -0.34 1.02 0 0 Z " fill="#727A8F" transform="translate(954,557)"/>
<path d="M0 0 C19 -0.02 38 -0.04 57 -0.05 C65.83 -0.06 74.65 -0.06 83.47 -0.08 C91.16 -0.09 98.85 -0.09 106.53 -0.09 C110.61 -0.1 114.68 -0.1 118.75 -0.11 C122.58 -0.11 126.41 -0.11 130.24 -0.11 C131.65 -0.11 133.06 -0.12 134.46 -0.12 C136.38 -0.12 138.3 -0.12 140.22 -0.12 C141.29 -0.12 142.37 -0.12 143.47 -0.12 C146 0 146 0 148 1 C148 1.66 148 2.32 148 3 C97.51 3 47.02 3 -5 3 C-5 2.67 -5 2.34 -5 2 C-3.35 2 -1.7 2 0 2 C0 1.34 0 0.68 0 0 Z " fill="#727A8F" transform="translate(179,557)"/>
<path d="M0 0 C67.82 0.5 67.82 0.5 137 1 C137 1.33 137 1.66 137 2 C91.79 2.33 46.58 2.66 0 3 C0 2.01 0 1.02 0 0 Z " fill="#7FC7FA" transform="translate(471,945)"/>
<path d="M0 0 C-0.33 37.62 -0.66 75.24 -1 114 C-1.33 114 -1.66 114 -2 114 C-2 77.04 -2 40.08 -2 2 C-2.66 1.67 -3.32 1.34 -4 1 C-2 0 -2 0 0 0 Z " fill="#5E5C64" transform="translate(622,830)"/>
<path d="M0 0 C0.99 0.33 1.98 0.66 3 1 C2.34 1 1.68 1 1 1 C1 1.66 1 2.32 1 3 C1.66 3.66 2.32 4.32 3 5 C-1.46 8.47 -1.46 8.47 -6 12 C-6.99 11.01 -7.98 10.02 -9 9 C-6.03 6.03 -3.06 3.06 0 0 Z " fill="#D0D3DF" transform="translate(10,945)"/>
<path d="M0 0 C1.65 0.33 3.3 0.66 5 1 C1.61 5.69 -1.78 10.03 -6 14 C-4.95 9.73 -4.25 6.97 -1 4 C-0.29 1.9 -0.29 1.9 0 0 Z " fill="#78BCF8" transform="translate(342,120)"/>
<path d="M0 0 C0.66 0 1.32 0 2 0 C0.59 3.22 -1.1 5.32 -3.62 7.75 C-4.57 8.67 -4.57 8.67 -5.54 9.61 C-6.02 10.07 -6.5 10.53 -7 11 C-7.66 10.67 -8.32 10.34 -9 10 C-7.35 8.02 -5.7 6.04 -4 4 C-4.33 3.34 -4.66 2.68 -5 2 C-4.01 1.67 -3.02 1.34 -2 1 C-1.67 1.33 -1.34 1.66 -1 2 C-0.67 1.34 -0.34 0.68 0 0 Z " fill="#5995E5" transform="translate(350,118)"/>
<path d="M0 0 C1.65 0 3.3 0 5 0 C5.66 1.32 6.32 2.64 7 4 C1.06 3.67 -4.88 3.34 -11 3 C-11 2.67 -11 2.34 -11 2 C-7.37 2 -3.74 2 0 2 C0 1.34 0 0.68 0 0 Z " fill="#527EB9" transform="translate(377,105)"/>
<path d="M0 0 C6.62 -0.25 6.62 -0.25 10 2 C7.25 2.92 5.64 3.11 2.81 3.06 C0.93 3.03 0.93 3.03 -1 3 C-0.67 2.01 -0.34 1.02 0 0 Z " fill="#6BA7D2" transform="translate(903,107)"/>
<path d="M0 0 C0.33 0 0.66 0 1 0 C1 5.61 1 11.22 1 17 C0.67 17 0.34 17 0 17 C0 11.39 0 5.78 0 0 Z " fill="#000002" transform="translate(950,667)"/>
<path d="M0 0 C0.33 0 0.66 0 1 0 C1 5.61 1 11.22 1 17 C0.67 17 0.34 17 0 17 C0 11.39 0 5.78 0 0 Z " fill="#000002" transform="translate(950,150)"/>
<path d="M0 0 C0.66 0.33 1.32 0.66 2 1 C1.01 1.66 0.02 2.32 -1 3 C-0.67 2.01 -0.34 1.02 0 0 Z " fill="#D0B571" transform="translate(924,948)"/>
<path d="M0 0 C1.65 0 3.3 0 5 0 C5 0.33 5 0.66 5 1 C3.35 1 1.7 1 0 1 C0 0.67 0 0.34 0 0 Z " fill="#000002" transform="translate(1001,470)"/>
<path d="M0 0 C1 4 1 4 1 4 Z " fill="#000002" transform="translate(820,1263)"/>
<path d="M0 0 C0.66 0 1.32 0 2 0 C2 0.66 2 1.32 2 2 C1.34 2 0.68 2 0 2 C0 1.34 0 0.68 0 0 Z " fill="#6199DF" transform="translate(673,821)"/>
<path d="M0 0 C4 1 4 1 4 1 Z " fill="#000002" transform="translate(275,470)"/>
<path d="" fill="#000002" transform="translate(0,0)"/>
<path d="M0 0 C0.99 0.5 0.99 0.5 2 1 C1.01 1.5 1.01 1.5 0 2 C0 1.34 0 0.68 0 0 Z " fill="#E7F3FD" transform="translate(660,830)"/>
<path d="M0 0 C3 1 3 1 3 1 Z " fill="#000002" transform="translate(716,750)"/>
<path d="M0 0 C3 1 3 1 3 1 Z " fill="#000002" transform="translate(561,750)"/>
<path d="M0 0 C3 1 3 1 3 1 Z " fill="#000002" transform="translate(346,597)"/>
<path d="M0 0 C0.33 0.66 0.66 1.32 1 2 C0.34 1.67 -0.32 1.34 -1 1 C-0.67 0.67 -0.34 0.34 0 0 Z " fill="#BADFFB" transform="translate(1042,453)"/>
<path d="" fill="#80CBFE" transform="translate(0,0)"/>
<path d="" fill="#000002" transform="translate(0,0)"/>
<path d="" fill="#7C7259" transform="translate(0,0)"/>
<path d="" fill="#000002" transform="translate(0,0)"/>
<path d="" fill="#141721" transform="translate(0,0)"/>
<path d="M0 0 C2 1 2 1 2 1 Z " fill="#000002" transform="translate(549,747)"/>
<path d="M0 0 C2 1 2 1 2 1 Z " fill="#000002" transform="translate(736,745)"/>
<path d="M0 0 C2 1 2 1 2 1 Z " fill="#000002" transform="translate(542,745)"/>
<path d="M0 0 C2 1 2 1 2 1 Z " fill="#000002" transform="translate(527,740)"/>
<path d="" fill="#E7F3FD" transform="translate(0,0)"/>
<path d="" fill="#000002" transform="translate(0,0)"/>
<path d="" fill="#000002" transform="translate(0,0)"/>
<path d="" fill="#000002" transform="translate(0,0)"/>
<path d="" fill="#000002" transform="translate(0,0)"/>
<path d="" fill="#F9E07E" transform="translate(0,0)"/>
<path d="" fill="#E7F3FD" transform="translate(0,0)"/>
<path d="" fill="#E7F3FD" transform="translate(0,0)"/>
<path d="" fill="#000002" transform="translate(0,0)"/>
<path d="" fill="#C0BBCC" transform="translate(0,0)"/>
<path d="" fill="#000002" transform="translate(0,0)"/>
<path d="" fill="#615E66" transform="translate(0,0)"/>
<path d="" fill="#282F41" transform="translate(0,0)"/>
<path d="" fill="#000002" transform="translate(0,0)"/>
<path d="" fill="#000002" transform="translate(0,0)"/>
<path d="" fill="#000002" transform="translate(0,0)"/>
<path d="" fill="#D7EAFA" transform="translate(0,0)"/>
<path d="" fill="#000002" transform="translate(0,0)"/>
<path d="" fill="#000002" transform="translate(0,0)"/>
<path d="" fill="#000002" transform="translate(0,0)"/>
<path d="" fill="#000002" transform="translate(0,0)"/>
<path d="" fill="#000002" transform="translate(0,0)"/>
<path d="" fill="#000002" transform="translate(0,0)"/>
<path d="" fill="#000002" transform="translate(0,0)"/>
<path d="" fill="#000002" transform="translate(0,0)"/>
<path d="" fill="#000002" transform="translate(0,0)"/>
<path d="" fill="#000002" transform="translate(0,0)"/>
<path d="" fill="#D7EAFA" transform="translate(0,0)"/>
<path d="" fill="#000002" transform="translate(0,0)"/>
<path d="" fill="#000002" transform="translate(0,0)"/>
<path d="" fill="#D7EAFA" transform="translate(0,0)"/>
<path d="" fill="#80CBFE" transform="translate(0,0)"/>
<path d="" fill="#282F41" transform="translate(0,0)"/>
<path d="" fill="#737B91" transform="translate(0,0)"/>
<path d="" fill="#000002" transform="translate(0,0)"/>
<path d="" fill="#D7EAFA" transform="translate(0,0)"/>
<path d="" fill="#000002" transform="translate(0,0)"/>
<path d="" fill="#000002" transform="translate(0,0)"/>
<path d="" fill="#000002" transform="translate(0,0)"/>
<path d="" fill="#000002" transform="translate(0,0)"/>
<path d="" fill="#80CBFE" transform="translate(0,0)"/>
<path d="" fill="#5BA3FA" transform="translate(0,0)"/>
<path d="" fill="#D7EAFA" transform="translate(0,0)"/>
<path d="" fill="#000002" transform="translate(0,0)"/>
<path d="" fill="#000002" transform="translate(0,0)"/>
<path d="" fill="#D7EAFA" transform="translate(0,0)"/>
<path d="" fill="#D7EAFA" transform="translate(0,0)"/>
<path d="" fill="#000002" transform="translate(0,0)"/>
<path d="" fill="#5BA3FA" transform="translate(0,0)"/>
<path d="" fill="#000002" transform="translate(0,0)"/>
<path d="" fill="#000002" transform="translate(0,0)"/>
<path d="" fill="#000002" transform="translate(0,0)"/>
</svg>
